<?xml version="1.0" encoding="UTF-8"?>
<svg width="21px" height="21px" viewBox="0 0 21 21" version="1.1" xmlns="http://www.w3.org/2000/svg" xmlns:xlink="http://www.w3.org/1999/xlink">
    <!-- Generator: Sketch 45.1 (43504) - http://www.bohemiancoding.com/sketch -->
    <title>添加 常态@1x</title>
    <desc>Created with Sketch.</desc>
    <defs></defs>
    <g id="Welcome" stroke="none" stroke-width="1" fill="none" fill-rule="evenodd">
        <g id="Artboard-2" transform="translate(-32.000000, -135.000000)" fill="#808080">
            <path d="M32.5,145 C32.224,145 32,145.224 32,145.5 C32,145.776 32.224,146 32.5,146 L52.5,146 C52.776,146 53,145.776 53,145.5 C53,145.224 52.776,145 52.5,145 L32.5,145 Z" id="Page-1-Copy-7"></path>
            <path d="M32.5,145 C32.224,145 32,145.224 32,145.5 C32,145.776 32.224,146 32.5,146 L52.5,146 C52.776,146 53,145.776 53,145.5 C53,145.224 52.776,145 52.5,145 L32.5,145 Z" id="Page-1-Copy-8" transform="translate(42.500000, 145.500000) rotate(90.000000) translate(-42.500000, -145.500000) "></path>
        </g>
    </g>
</svg>