<?xml version="1.0" encoding="UTF-8"?>
<svg width="20px" height="20px" viewBox="0 0 20 20" version="1.1" xmlns="http://www.w3.org/2000/svg" xmlns:xlink="http://www.w3.org/1999/xlink">
    <!-- Generator: Sketch 45.1 (43504) - http://www.bohemiancoding.com/sketch -->
    <title>添加多人会话 常态@1x</title>
    <desc>Created with Sketch.</desc>
    <defs></defs>
    <g id="Welcome" stroke="none" stroke-width="1" fill="none" fill-rule="evenodd">
        <g id="Artboard-2" transform="translate(-32.000000, -207.000000)" fill="#808080">
            <path d="M46.5,224 C46.224,224 46,224.224 46,224.5 C46,224.776 46.224,225 46.5,225 L50.5,225 C50.776,225 51,224.776 51,224.5 C51,224.224 50.776,224 50.5,224 L46.5,224 Z" id="Page-1-Copy-14"></path>
            <path d="M46.5,224 C46.224,224 46,224.224 46,224.5 C46,224.776 46.224,225 46.5,225 L50.5,225 C50.776,225 51,224.776 51,224.5 C51,224.224 50.776,224 50.5,224 L46.5,224 Z" id="Page-1-Copy-15" transform="translate(48.500000, 224.500000) rotate(90.000000) translate(-48.500000, -224.500000) "></path>
            <path d="M37.5252221,212.698972 C37.5252221,210.156119 39.5935684,208.088317 42.1358767,208.088317 C44.678185,208.088317 46.7465313,210.156119 46.7465313,212.698972 C46.7465313,215.24128 44.678185,217.309082 42.1358767,217.309082 C39.5935684,217.309082 37.5252221,215.24128 37.5252221,212.698972 Z M47.8348482,212.698972 C47.8348482,209.555912 45.2783918,207 42.1358767,207 C38.9933616,207 36.4369051,209.555912 36.4369051,212.698972 C36.4369051,215.818632 38.956903,218.35822 42.0689452,218.394678 C42.1048596,218.398487 42.1391416,218.409915 42.1761444,218.40665 C42.8742246,218.406995 43.4168098,218.489976 43.8474477,218.584074 C44.2780856,218.678172 44.5643989,218.770969 44.9576094,218.911901 C45.1756913,218.990064 45.445864,219.102812 45.7263218,219.245585 C46.0067795,219.388359 46.1873714,219.496337 46.3860864,219.616162 C46.8281759,219.882741 47.3042104,220.287135 47.3067339,220.28949 C47.3133241,220.295639 47.7085232,220.61752 47.9128893,220.847521 C48.0238005,220.972344 48.4366387,221.077827 48.6859673,220.738844 C48.935296,220.399862 48.6817596,220.168028 48.582038,220.006694 C48.363968,219.65389 47.6379463,219.084004 47.0779961,218.766018 C46.0412462,218.177266 45.7381607,218.006465 44.8202104,217.723731 C46.6126683,216.762203 47.8348482,214.871252 47.8348482,212.698972 Z M34.5633676,221.359798 C33.7144804,222.59667 32.9994562,224.319475 33.0000003,226.456386 C33.0000003,226.756761 33.2432391,227 33.5441588,227 C33.8450784,227 34.0866848,226.756761 34.0883172,226.456386 C34.1051861,223.704576 35.550471,220.87332 38.2473203,219.398106 C38.510693,219.253904 38.4584538,218.840888 38.246232,218.628666 C38.0334661,218.416989 37.669424,218.488818 37.4125813,218.645535 C36.800403,219.019916 35.5776789,219.881863 34.5633676,221.359798 Z" id="Fill-1-Copy-8"></path>
        </g>
    </g>
</svg>