<?xml version="1.0" encoding="UTF-8"?>
<svg width="21px" height="21px" viewBox="0 0 21 21" version="1.1" xmlns="http://www.w3.org/2000/svg" xmlns:xlink="http://www.w3.org/1999/xlink">
    <!-- Generator: Sketch 45.1 (43504) - http://www.bohemiancoding.com/sketch -->
    <title>添加 点选@1x</title>
    <desc>Created with Sketch.</desc>
    <defs></defs>
    <g id="Welcome" stroke="none" stroke-width="1" fill="none" fill-rule="evenodd" fill-opacity="0.6">
        <g id="Artboard-2" transform="translate(-69.000000, -135.000000)" fill="#808080">
            <path d="M69.5,145 C69.224,145 69,145.224 69,145.5 C69,145.776 69.224,146 69.5,146 L89.5,146 C89.776,146 90,145.776 90,145.5 C90,145.224 89.776,145 89.5,145 L69.5,145 Z" id="Page-1-Copy-7"></path>
            <path d="M69.5,145 C69.224,145 69,145.224 69,145.5 C69,145.776 69.224,146 69.5,146 L89.5,146 C89.776,146 90,145.776 90,145.5 C90,145.224 89.776,145 89.5,145 L69.5,145 Z" id="Page-1-Copy-8" transform="translate(79.500000, 145.500000) rotate(90.000000) translate(-79.500000, -145.500000) "></path>
        </g>
    </g>
</svg>