<?xml version="1.0" encoding="UTF-8"?>
<svg width="16px" height="18px" viewBox="0 0 16 18" version="1.1" xmlns="http://www.w3.org/2000/svg" xmlns:xlink="http://www.w3.org/1999/xlink">
    <!-- Generator: Sketch 45.1 (43504) - http://www.bohemiancoding.com/sketch -->
    <title>加入黑名单 copy 2@1x</title>
    <desc>Created with Sketch.</desc>
    <defs></defs>
    <g id="Welcome" stroke="none" stroke-width="1" fill="none" fill-rule="evenodd">
        <g id="Artboard-2" transform="translate(-397.000000, -436.000000)" fill="#2DD0CF">
            <g id="Group-14-Copy-2" transform="translate(397.000000, 436.000000)">
                <g id="Group-3" transform="translate(8.000000, 9.992200)">
                    <path d="M6.1895,6.335 L2.7105,1.441 C3.1225,1.234 3.5805,1.106 4.0715,1.106 C5.7515,1.106 7.1185,2.473 7.1185,4.152 C7.1185,5.009 6.7605,5.781 6.1895,6.335 M1.0245,4.152 C1.0245,3.323 1.3595,2.572 1.8985,2.023 L5.3655,6.9 C4.9715,7.087 4.5355,7.199 4.0715,7.199 C2.3915,7.199 1.0245,5.833 1.0245,4.152 M4.0715,0.306 C1.9505,0.306 0.2245,2.031 0.2245,4.152 C0.2245,6.273 1.9505,8 4.0715,8 C6.1925,8 7.9185,6.273 7.9185,4.152 C7.9185,2.031 6.1925,0.306 4.0715,0.306" id="Fill-1"></path>
                </g>
                <path d="M3.7378,9.8643 C3.2188,10.1813 2.1838,10.9123 1.3238,12.1643 C0.6048,13.2113 -0.0002,14.6713 -0.0002,16.4803 C-0.0002,16.7353 0.2058,16.9413 0.4608,16.9413 C0.7158,16.9413 0.9208,16.7353 0.9218,16.4803 C0.9358,14.1493 2.1598,11.7523 4.4448,10.5023 C4.6678,10.3803 4.6238,10.0303 4.4438,9.8503 C4.2638,9.6713 3.9548,9.7313 3.7378,9.8643" id="Fill-4"></path>
                <path d="M7.7388,8.7324 C5.5848,8.7324 3.8328,6.9804 3.8328,4.8274 C3.8328,2.6734 5.5848,0.9214 7.7388,0.9214 C9.8918,0.9214 11.6438,2.6734 11.6438,4.8274 C11.6438,6.9804 9.8918,8.7324 7.7388,8.7324 M10.1288,10.0894 C10.2768,10.1434 10.4568,10.2194 10.6438,10.3084 C11.0718,10.1364 11.5348,10.0384 12.0228,10.0324 C11.9908,10.0124 11.9558,9.9844 11.9248,9.9664 C11.0468,9.4674 10.7898,9.3234 10.0118,9.0844 C11.5308,8.2694 12.5658,6.6674 12.5658,4.8274 C12.5658,2.1654 10.4008,0.0004 7.7388,0.0004 C5.0768,0.0004 2.9108,2.1654 2.9108,4.8274 C2.9108,7.4694 5.0458,9.6214 7.6818,9.6524 C7.7128,9.6554 7.7408,9.6654 7.7728,9.6624 C8.3638,9.6624 8.8238,9.7324 9.1888,9.8124 C9.5528,9.8924 9.7958,9.9704 10.1288,10.0894" id="Fill-7"></path>
            </g>
        </g>
    </g>
</svg>