<?xml version="1.0" encoding="UTF-8"?>
<svg width="20px" height="20px" viewBox="0 0 20 20" version="1.1" xmlns="http://www.w3.org/2000/svg" xmlns:xlink="http://www.w3.org/1999/xlink">
    <!-- Generator: Sketch 45.1 (43504) - http://www.bohemiancoding.com/sketch -->
    <title>添加多人会话 点选@1x</title>
    <desc>Created with Sketch.</desc>
    <defs></defs>
    <g id="Welcome" stroke="none" stroke-width="1" fill="none" fill-rule="evenodd" fill-opacity="0.6">
        <g id="Artboard-2" transform="translate(-69.000000, -207.000000)" fill="#808080">
            <path d="M83.5,224 C83.224,224 83,224.224 83,224.5 C83,224.776 83.224,225 83.5,225 L87.5,225 C87.776,225 88,224.776 88,224.5 C88,224.224 87.776,224 87.5,224 L83.5,224 Z" id="Page-1-Copy-16"></path>
            <path d="M83.5,224 C83.224,224 83,224.224 83,224.5 C83,224.776 83.224,225 83.5,225 L87.5,225 C87.776,225 88,224.776 88,224.5 C88,224.224 87.776,224 87.5,224 L83.5,224 Z" id="Page-1-Copy-17" transform="translate(85.500000, 224.500000) rotate(90.000000) translate(-85.500000, -224.500000) "></path>
            <path d="M74.5252221,212.698972 C74.5252221,210.156119 76.5935684,208.088317 79.1358767,208.088317 C81.678185,208.088317 83.7465313,210.156119 83.7465313,212.698972 C83.7465313,215.24128 81.678185,217.309082 79.1358767,217.309082 C76.5935684,217.309082 74.5252221,215.24128 74.5252221,212.698972 Z M84.8348482,212.698972 C84.8348482,209.555912 82.2783918,207 79.1358767,207 C75.9933616,207 73.4369051,209.555912 73.4369051,212.698972 C73.4369051,215.818632 75.956903,218.35822 79.0689452,218.394678 C79.1048596,218.398487 79.1391416,218.409915 79.1761444,218.40665 C79.8742246,218.406995 80.4168098,218.489976 80.8474477,218.584074 C81.2780856,218.678172 81.5643989,218.770969 81.9576094,218.911901 C82.1756913,218.990064 82.445864,219.102812 82.7263218,219.245585 C83.0067795,219.388359 83.1873714,219.496337 83.3860864,219.616162 C83.8281759,219.882741 84.3042104,220.287135 84.3067339,220.28949 C84.3133241,220.295639 84.7085232,220.61752 84.9128893,220.847521 C85.0238005,220.972344 85.4366387,221.077827 85.6859673,220.738844 C85.935296,220.399862 85.6817596,220.168028 85.582038,220.006694 C85.363968,219.65389 84.6379463,219.084004 84.0779961,218.766018 C83.0412462,218.177266 82.7381607,218.006465 81.8202104,217.723731 C83.6126683,216.762203 84.8348482,214.871252 84.8348482,212.698972 Z M71.5633676,221.359798 C70.7144804,222.59667 69.9994562,224.319475 70.0000003,226.456386 C70.0000003,226.756761 70.2432391,227 70.5441588,227 C70.8450784,227 71.0866848,226.756761 71.0883172,226.456386 C71.1051861,223.704576 72.550471,220.87332 75.2473203,219.398106 C75.510693,219.253904 75.4584538,218.840888 75.246232,218.628666 C75.0334661,218.416989 74.669424,218.488818 74.4125813,218.645535 C73.800403,219.019916 72.5776789,219.881863 71.5633676,221.359798 Z" id="Fill-1-Copy-9"></path>
        </g>
    </g>
</svg>