<?xml version="1.0" encoding="UTF-8"?>
<svg width="24px" height="24px" viewBox="0 0 24 24" version="1.1" xmlns="http://www.w3.org/2000/svg" xmlns:xlink="http://www.w3.org/1999/xlink">
    <!-- Generator: Sketch 46.2 (44496) - http://www.bohemiancoding.com/sketch -->
    <title>名片 点选 copy@1x</title>
    <desc>Created with Sketch.</desc>
    <defs></defs>
    <g id="Welcome" stroke="none" stroke-width="1" fill="none" fill-rule="evenodd">
        <g id="Artboard-2" transform="translate(-152.000000, -308.000000)" fill="#28C7C6">
            <path d="M153,311.990795 L153,328.009205 C153,328.550834 153.451278,329 154.004947,329 L173.995053,329 C174.552007,329 175,328.555074 175,328.009205 L175,311.990795 C175,311.449166 174.548722,311 173.995053,311 L154.004947,311 C153.447993,311 153,311.444926 153,311.990795 Z M152,311.990795 C152,310.891309 152.897026,310 154.004947,310 L173.995053,310 C175.102355,310 176,310.898212 176,311.990795 L176,328.009205 C176,329.108691 175.102974,330 173.995053,330 L154.004947,330 C152.897645,330 152,329.101788 152,328.009205 L152,311.990795 Z" id="Rectangle-5" fill-rule="nonzero"></path>
            <path d="M158.103556,316.98928 C158.103556,315.209283 159.522101,313.761822 161.265705,313.761822 C163.009309,313.761822 164.427854,315.209283 164.427854,316.98928 C164.427854,318.768896 163.009309,320.216357 161.265705,320.216357 C159.522101,320.216357 158.103556,318.768896 158.103556,316.98928 Z M165.17426,316.98928 C165.17426,314.789139 163.420952,313 161.265705,313 C159.110458,313 157.35715,314.789139 157.35715,316.98928 C157.35715,319.173042 159.085453,320.950754 161.219801,320.976275 C161.244432,320.978941 161.267944,320.98694 161.293322,320.984655 C164.308802,320.986178 166.785004,323.512761 166.785004,326.61947 C166.785004,326.829733 166.951825,327 167.158207,327 C167.364588,327 167.53141,326.829733 167.53141,326.61947 C167.53141,323.74664 165.665768,321.311095 163.106715,320.506612 C164.336046,319.833542 165.17426,318.509876 165.17426,316.98928 Z M156.072212,323.051858 C155.490016,323.917669 154.999627,325.123633 155,326.61947 C155,326.829733 155.166822,327 155.373203,327 C155.579584,327 155.745287,326.829733 155.746406,326.61947 C155.757975,324.693203 156.749203,322.711324 158.598796,321.678674 C158.779427,321.577733 158.743599,321.288622 158.59805,321.140066 C158.452128,320.991892 158.202455,321.042172 158.026303,321.151875 C157.60645,321.413941 156.767863,322.017304 156.072212,323.051858 Z" id="Fill-1-Copy-12" stroke="#28C7C6" stroke-width="0.15"></path>
            <rect id="Rectangle-31" x="167" y="317" width="6" height="1" rx="0.5"></rect>
            <rect id="Rectangle-31-Copy" x="168" y="322" width="5" height="1" rx="0.5"></rect>
        </g>
    </g>
</svg>