<?xml version="1.0" encoding="UTF-8"?>
<svg width="24px" height="24px" viewBox="0 0 24 24" version="1.1" xmlns="http://www.w3.org/2000/svg" xmlns:xlink="http://www.w3.org/1999/xlink">
    <!-- Generator: Sketch 45.1 (43504) - http://www.bohemiancoding.com/sketch -->
    <title>名片 常态 copy@1x</title>
    <desc>Created with Sketch.</desc>
    <defs>
        <rect id="path-1" x="168" y="273" width="6" height="1" rx="0.5"></rect>
        <rect id="path-2" x="169" y="278" width="5" height="1" rx="0.5"></rect>
    </defs>
    <g id="Welcome" stroke="none" stroke-width="1" fill="none" fill-rule="evenodd">
        <g id="Artboard-2" transform="translate(-153.000000, -264.000000)">
            <path d="M154,267.990795 L154,284.009205 C154,284.550834 154.451278,285 155.004947,285 L174.995053,285 C175.552007,285 176,284.555074 176,284.009205 L176,267.990795 C176,267.449166 175.548722,267 174.995053,267 L155.004947,267 C154.447993,267 154,267.444926 154,267.990795 Z M153,267.990795 C153,266.891309 153.897026,266 155.004947,266 L174.995053,266 C176.102355,266 177,266.898212 177,267.990795 L177,284.009205 C177,285.108691 176.102974,286 174.995053,286 L155.004947,286 C153.897645,286 153,285.101788 153,284.009205 L153,267.990795 Z" id="Rectangle-5" fill="#808080" fill-rule="nonzero"></path>
            <path d="M159.103556,272.98928 C159.103556,271.209283 160.522101,269.761822 162.265705,269.761822 C164.009309,269.761822 165.427854,271.209283 165.427854,272.98928 C165.427854,274.768896 164.009309,276.216357 162.265705,276.216357 C160.522101,276.216357 159.103556,274.768896 159.103556,272.98928 Z M166.17426,272.98928 C166.17426,270.789139 164.420952,269 162.265705,269 C160.110458,269 158.35715,270.789139 158.35715,272.98928 C158.35715,275.173042 160.085453,276.950754 162.219801,276.976275 C162.244432,276.978941 162.267944,276.98694 162.293322,276.984655 C165.308802,276.986178 167.785004,279.512761 167.785004,282.61947 C167.785004,282.829733 167.951825,283 168.158207,283 C168.364588,283 168.53141,282.829733 168.53141,282.61947 C168.53141,279.74664 166.665768,277.311095 164.106715,276.506612 C165.336046,275.833542 166.17426,274.509876 166.17426,272.98928 Z M157.072212,279.051858 C156.490016,279.917669 155.999627,281.123633 156,282.61947 C156,282.829733 156.166822,283 156.373203,283 C156.579584,283 156.745287,282.829733 156.746406,282.61947 C156.757975,280.693203 157.749203,278.711324 159.598796,277.678674 C159.779427,277.577733 159.743599,277.288622 159.59805,277.140066 C159.452128,276.991892 159.202455,277.042172 159.026303,277.151875 C158.60645,277.413941 157.767863,278.017304 157.072212,279.051858 Z" id="Fill-1-Copy-12" stroke="#808080" stroke-width="0.15" fill="#808080"></path>
            <g id="Rectangle-31">
                <use fill="#808080" fill-rule="evenodd" xlink:href="#path-1"></use>
                <rect stroke="#808080" stroke-width="1" x="168.5" y="273.5" width="5" height="1" rx="0.5"></rect>
            </g>
            <g id="Rectangle-31-Copy">
                <use fill="#808080" fill-rule="evenodd" xlink:href="#path-2"></use>
                <rect stroke="#808080" stroke-width="1" x="169.5" y="278.5" width="4" height="1" rx="0.5"></rect>
            </g>
        </g>
    </g>
</svg>