<?xml version="1.0" encoding="UTF-8"?>
<svg width="24px" height="19px" viewBox="0 0 24 19" version="1.1" xmlns="http://www.w3.org/2000/svg" xmlns:xlink="http://www.w3.org/1999/xlink">
    <!-- Generator: Sketch 45.1 (43504) - http://www.bohemiancoding.com/sketch -->
    <title>更换头像 icon@1x</title>
    <desc>Created with Sketch.</desc>
    <defs></defs>
    <g id="Welcome" stroke="none" stroke-width="1" fill="none" fill-rule="evenodd" opacity="0.8">
        <g id="Artboard-2" transform="translate(-423.000000, -431.000000)">
            <g id="Group-4-Copy-2" transform="translate(423.000000, 431.000000)">
                <path d="M22.9654698,16.9421881 C22.9654698,17.5801499 22.4099167,18.0971396 21.7249467,18.0971396 L2.12913535,18.0971396 C1.44386225,18.0971396 0.888309128,17.5801499 0.888309128,16.9421881 L0.888309128,4.61718809 C0.888309128,3.9789254 1.44386225,3.46193563 2.12913535,3.46193563 L6.1525316,3.46193563 L7.92951356,0.879394182 L15.9245685,0.879394182 L17.7012474,3.46193563 L21.7249467,3.46193563 C22.4099167,3.46193563 22.9654698,3.9789254 22.9654698,4.61718809 L22.9654698,16.9421881 Z M18.1455686,2.60068725 L16.3685867,0.0181457993 L7.4851923,0.0181457993 L5.70851343,2.60068725 L1.33263039,2.60068725 C0.59643916,2.60068725 -3.03084078e-05,3.17906579 -3.03084078e-05,3.8922589 L-3.03084078e-05,17.6671173 C-3.03084078e-05,18.3803104 0.59643916,18.958388 1.33263039,18.958388 L22.5214517,18.958388 C23.2570367,18.958388 23.8538093,18.3803104 23.8538093,17.6671173 L23.8538093,3.8922589 C23.8538093,3.17906579 23.2570367,2.60068725 22.5214517,2.60068725 L18.1455686,2.60068725 Z" id="Fill-1" fill="#FFFFFF"></path>
                <circle id="Oval-2" stroke="#FFFFFF" cx="11.9340659" cy="10.6153846" r="5.07692308"></circle>
            </g>
        </g>
    </g>
</svg>