<?xml version="1.0" encoding="UTF-8"?>
<svg width="22px" height="22px" viewBox="0 0 22 22" version="1.1" xmlns="http://www.w3.org/2000/svg" xmlns:xlink="http://www.w3.org/1999/xlink">
    <!-- Generator: Sketch 45.1 (43504) - http://www.bohemiancoding.com/sketch -->
    <title>x常态@1x</title>
    <desc>Created with Sketch.</desc>
    <defs></defs>
    <g id="Welcome" stroke="none" stroke-width="1" fill="none" fill-rule="evenodd">
        <g id="Artboard-2" transform="translate(-305.000000, -433.000000)">
            <circle id="Oval-13-Copy-2" stroke="#FFFFFF" fill="#EB424C" cx="316" cy="444" r="10"></circle>
            <path d="M322.292555,443.315811 L316.417402,443.315811 L316.417402,437.440658 C316.417402,437.136618 316.170645,436.889862 315.866606,436.889862 C315.562567,436.889862 315.315811,437.136618 315.315811,437.440658 L315.315811,443.315811 L309.440658,443.315811 C309.136618,443.315811 308.889862,443.562567 308.889862,443.866606 C308.889862,444.170645 309.136618,444.417402 309.440658,444.417402 L315.315811,444.417402 L315.315811,450.292555 C315.315811,450.596594 315.562567,450.84335 315.866606,450.84335 C316.170645,450.84335 316.417402,450.596594 316.417402,450.292555 L316.417402,444.417402 L322.292555,444.417402 C322.596594,444.417402 322.84335,444.170645 322.84335,443.866606 C322.84335,443.562567 322.596594,443.315811 322.292555,443.315811" id="Page-1" fill="#FFFFFF" transform="translate(315.866606, 443.866606) rotate(-315.000000) translate(-315.866606, -443.866606) "></path>
        </g>
    </g>
</svg>