<?xml version="1.0" encoding="UTF-8"?>
<svg width="22px" height="22px" viewBox="0 0 22 22" version="1.1" xmlns="http://www.w3.org/2000/svg" xmlns:xlink="http://www.w3.org/1999/xlink">
    <!-- Generator: Sketch 45.1 (43504) - http://www.bohemiancoding.com/sketch -->
    <title>x点选@1x</title>
    <desc>Created with Sketch.</desc>
    <defs></defs>
    <g id="Welcome" stroke="none" stroke-width="1" fill="none" fill-rule="evenodd">
        <g id="Artboard-2" transform="translate(-331.000000, -433.000000)">
            <g id="Group-11" transform="translate(332.000000, 434.000000)">
                <circle id="Oval-13-Copy-4" stroke="#FFFFFF" fill="#CC3139" cx="10" cy="10" r="10"></circle>
                <path d="M16.2925548,9.31581066 L10.4174018,9.31581066 L10.4174018,3.44065766 C10.4174018,3.13661849 10.1706454,2.88986206 9.86660625,2.88986206 C9.56256708,2.88986206 9.31581066,3.13661849 9.31581066,3.44065766 L9.31581066,9.31581066 L3.44065766,9.31581066 C3.13661849,9.31581066 2.88986206,9.56256708 2.88986206,9.86660625 C2.88986206,10.1706454 3.13661849,10.4174018 3.44065766,10.4174018 L9.31581066,10.4174018 L9.31581066,16.2925548 C9.31581066,16.596594 9.56256708,16.8433504 9.86660625,16.8433504 C10.1706454,16.8433504 10.4174018,16.596594 10.4174018,16.2925548 L10.4174018,10.4174018 L16.2925548,10.4174018 C16.596594,10.4174018 16.8433504,10.1706454 16.8433504,9.86660625 C16.8433504,9.56256708 16.596594,9.31581066 16.2925548,9.31581066" id="Page-1-Copy-3" fill="#FFFFFF" transform="translate(9.866606, 9.866606) rotate(-315.000000) translate(-9.866606, -9.866606) "></path>
            </g>
        </g>
    </g>
</svg>