<?xml version="1.0" encoding="UTF-8"?>
<svg width="30px" height="30px" viewBox="0 0 30 30" version="1.1" xmlns="http://www.w3.org/2000/svg" xmlns:xlink="http://www.w3.org/1999/xlink">
    <!-- Generator: Sketch 46.2 (44496) - http://www.bohemiancoding.com/sketch -->
    <title>聊天 pre@1x</title>
    <desc>Created with Sketch.</desc>
    <defs></defs>
    <g id="Welcome" stroke="none" stroke-width="1" fill="none" fill-rule="evenodd">
        <g id="Artboard-2" transform="translate(-108.000000, -70.000000)">
            <path d="M131.420532,91 L135,91 L135,74 L112,74 L112,91 L125.79464,91 L131.420532,96.637207 L131.420532,91 Z" id="Combined-Shape" fill="#BAEDED"></path>
            <path d="M110.527466,73.5255127 L110.527466,89.5489502 L110.527466,89.5489502 C110.527466,90.1012349 110.975181,90.5489502 111.527466,90.5489502 L124.85,90.5489502 L131.510864,96.8974609 L131.510864,90.5489502 L134.509766,90.5489502 L134.509766,90.5489502 C135.06205,90.5489502 135.509766,90.1012349 135.509766,89.5489502 L135.509766,73.5255127 L135.509766,73.5255127 C135.509766,72.9732279 135.06205,72.5255127 134.509766,72.5255127 L111.527466,72.5255127 L111.527466,72.5255127 C110.975181,72.5255127 110.527466,72.9732279 110.527466,73.5255127 Z" id="Path-2-Copy-2" stroke="#28C7C6" stroke-linecap="round" stroke-linejoin="round"></path>
        </g>
    </g>
</svg>