<?xml version="1.0" encoding="UTF-8"?>
<svg width="30px" height="30px" viewBox="0 0 30 30" version="1.1" xmlns="http://www.w3.org/2000/svg" xmlns:xlink="http://www.w3.org/1999/xlink">
    <!-- Generator: Sketch 45.1 (43504) - http://www.bohemiancoding.com/sketch -->
    <title>通讯录pre@1x</title>
    <desc>Created with Sketch.</desc>
    <defs></defs>
    <g id="Welcome" stroke="none" stroke-width="1" fill="none" fill-rule="evenodd">
        <g id="Artboard-2" transform="translate(-30.000000, -70.000000)">
            <path d="M54,79 L60,79 L60,78 L54,78 L54,79 Z M52,83 L60,83 L60,82.0368998 L52,82.0368998 L52,83 Z M54,87 L60,87 L60,86 L54,86 L54,87 Z" id="Fill-1-Copy" fill="#28C7C6"></path>
            <path d="M37.0145264,78.7399435 C37.0145264,75.4174626 40.050717,72.4118652 43.3143384,72.4118652 C46.5779599,72.4118652 49.619751,75.3490889 49.619751,78.6715698 C49.619751,81.9933397 46.8386336,84.9494629 43.5750122,84.9494629 C40.3113908,84.9494629 37.0145264,82.0617134 37.0145264,78.7399435 Z M50.5946045,78.6715698 C50.5946045,74.5648611 47.3484595,71.29369 43.3143384,71.29369 C39.2802173,71.29369 35.9827881,74.6332348 35.9827881,78.7399435 C35.9827881,82.8160794 39.5800099,85.8636182 43.5750122,85.9112549 C43.6211164,85.9162318 43.7141116,85.9155209 43.7616129,85.9112549 C49.4058897,85.9140989 54.0007324,90.9164485 54.0007324,96.7153259 C54.0007324,97.1077953 54.1842895,97.4143372 54.5705872,97.4143372 C54.9568848,97.4143372 54.9958496,97.1077953 54.9958496,96.7153259 C54.9958496,91.3529996 51.5502324,86.8068958 46.7602812,85.3052738 C49.0613019,84.0489452 50.5946045,81.5098629 50.5946045,78.6715698 Z M33.593329,90.0561442 C32.5035924,91.6722365 31.5856989,93.9232475 31.5863975,96.7153259 C31.5863975,97.1077953 31.7239318,97.4143372 32.1102295,97.4143372 C32.4965271,97.4143372 32.5887247,97.1077953 32.5908203,96.7153259 C32.6124753,93.1198228 34.5656395,89.0309017 38.0276489,87.1033936 C38.3657467,86.9149798 38.4563599,86.6651611 38.2515259,86.3823242 C38.0466919,86.0994873 37.5649447,86.1775576 37.2352295,86.3823242 C36.4493617,86.871489 34.8954246,88.1250811 33.593329,90.0561442 Z" id="Fill-1-Copy-2" fill="#28C7C6"></path>
            <circle id="Oval-7" fill="#BAEDED" cx="42.75" cy="78.75" r="5.75"></circle>
        </g>
    </g>
</svg>