<?xml version="1.0" encoding="UTF-8"?>
<svg width="30px" height="30px" viewBox="0 0 30 30" version="1.1" xmlns="http://www.w3.org/2000/svg" xmlns:xlink="http://www.w3.org/1999/xlink">
    <!-- Generator: Sketch 45.1 (43504) - http://www.bohemiancoding.com/sketch -->
    <title>通讯录@1x</title>
    <desc>Created with Sketch.</desc>
    <defs></defs>
    <g id="Welcome" stroke="none" stroke-width="1" fill="none" fill-rule="evenodd">
        <g id="Artboard-2" transform="translate(-68.000000, -70.000000)" fill="#808080">
            <g id="Group-Copy" transform="translate(69.000000, 71.000000)">
                <path d="M23,8 L29,8 L29,7 L23,7 L23,8 Z M21,12 L29,12 L29,11.0368998 L21,11.0368998 L21,12 Z M23,16 L29,16 L29,15 L23,15 L23,16 Z" id="Fill-1-Copy"></path>
                <path d="M6.01452637,7.73994346 C6.01452637,4.41746256 9.050717,1.41186523 12.3143384,1.41186523 C15.5779599,1.41186523 18.619751,4.34908892 18.619751,7.67156982 C18.619751,10.9933397 15.8386336,13.9494629 12.5750122,13.9494629 C9.31139077,13.9494629 6.01452637,11.0617134 6.01452637,7.73994346 Z M19.5946045,7.67156982 C19.5946045,3.56486113 16.3484595,0.293689982 12.3143384,0.293689982 C8.28021733,0.293689982 4.98278809,3.63323477 4.98278809,7.73994346 C4.98278809,11.8160794 8.58000986,14.8636182 12.5750122,14.9112549 C12.6211164,14.9162318 12.7141116,14.9155209 12.7616129,14.9112549 C18.4058897,14.9140989 23.0007324,19.9164485 23.0007324,25.7153259 C23.0007324,26.1077953 23.1842895,26.4143372 23.5705872,26.4143372 C23.9568848,26.4143372 23.9958496,26.1077953 23.9958496,25.7153259 C23.9958496,20.3529996 20.5502324,15.8068958 15.7602812,14.3052738 C18.0613019,13.0489452 19.5946045,10.5098629 19.5946045,7.67156982 Z M2.59332905,19.0561442 C1.50359244,20.6722365 0.585698908,22.9232475 0.586397457,25.7153259 C0.586397457,26.1077953 0.723931835,26.4143372 1.11022949,26.4143372 C1.49652715,26.4143372 1.58872467,26.1077953 1.59082031,25.7153259 C1.61247533,22.1198228 3.56563955,18.0309017 7.02764893,16.1033936 C7.36574669,15.9149798 7.45635986,15.6651611 7.25152588,15.3823242 C7.04669189,15.0994873 6.56494467,15.1775576 6.23522949,15.3823242 C5.44936175,15.871489 3.89542458,17.1250811 2.59332905,19.0561442 Z" id="Fill-1-Copy-2"></path>
            </g>
        </g>
    </g>
</svg>