<?xml version="1.0" encoding="UTF-8"?>
<svg width="160px" height="27px" viewBox="0 0 160 27" version="1.1" xmlns="http://www.w3.org/2000/svg" xmlns:xlink="http://www.w3.org/1999/xlink">
    <!-- Generator: Sketch 45.1 (43504) - http://www.bohemiancoding.com/sketch -->
    <title>最底部logo@1x</title>
    <desc>Created with Sketch.</desc>
    <defs></defs>
    <g id="Welcome" stroke="none" stroke-width="1" fill="none" fill-rule="evenodd" opacity="0.7">
        <g id="Artboard-2" transform="translate(-483.000000, -698.000000)" fill="#FFFFFF">
            <g id="Group-9-Copy-3" transform="translate(483.000000, 698.000000)">
                <path d="M23.928254,15.5356825 C23.8984127,15.5667937 23.8768254,15.603619 23.8647619,15.6448889 C22.7968254,19.4455238 19.3022222,22.2417143 15.1657143,22.2417143 C13.0603175,22.2417143 11.1206349,21.5166349 9.58222222,20.3052063 C9.48,20.2245714 9.3352381,20.2309206 9.2431746,20.3223492 L6.6431746,22.923619 C6.53777778,23.0290159 6.54285714,23.2029841 6.65714286,23.2994921 C8.95492063,25.2391746 11.9225397,26.4099683 15.1657143,26.4099683 C22.4590476,26.4099683 28.3707937,20.4975873 28.3707937,13.204254 C28.3707937,12.7172698 28.3434921,12.2353651 28.2920635,11.7617143 C28.2685714,11.5490159 28.008254,11.4563175 27.855873,11.6074286 L23.928254,15.5356825 Z" id="Fill-1"></path>
                <path d="M6.4031746,10.8745397 C6.43301587,10.8440635 6.4552381,10.8072381 6.46666667,10.7653333 C7.53460317,6.96469841 11.0292063,4.16914286 15.1663492,4.16914286 C17.271746,4.16914286 19.2114286,4.8935873 20.7492063,6.10501587 C20.8514286,6.18565079 20.9961905,6.17930159 21.088254,6.0872381 L23.6888889,3.48660317 C23.7942857,3.38120635 23.7892063,3.2072381 23.6749206,3.11136508 C21.3771429,1.17168254 18.4095238,0.000253968254 15.1663492,0.000253968254 C7.87301587,0.000253968254 1.96126984,5.91263492 1.96126984,13.2053333 C1.96126984,13.6923175 1.98793651,14.1742222 2.04063492,14.647873 C2.06349206,14.8612063 2.32444444,14.9526349 2.47619048,14.8015238 L6.4031746,10.8745397 Z" id="Fill-3"></path>
                <path d="M13.128127,17.4485079 L18.2074921,18.3253333 C18.2893968,18.3393016 18.3732063,18.312 18.432254,18.2535873 L30.255746,6.43136508 C30.304,6.38311111 30.3306667,6.31834921 30.3306667,6.24977778 L30.3306667,0.292952381 C30.3306667,0.0643809524 30.0538413,-0.0511746032 29.8925714,0.111365079 L12.9909841,17.0135873 C12.8436825,17.1608889 12.9236825,17.4129524 13.128127,17.4485079" id="Fill-5"></path>
                <path d="M17.2024127,8.9608254 L12.1230476,8.084 C12.0411429,8.07003175 11.9573333,8.09669841 11.8982857,8.15511111 L0.0754285714,19.9792381 C0.0271746032,20.0262222 -0.000126984127,20.092254 -0.000126984127,20.1601905 L-0.000126984127,26.116381 C-0.000126984127,26.3449524 0.277333333,26.459873 0.437968254,26.2986032 L17.3401905,9.39574603 C17.488127,9.24844444 17.408127,8.99638095 17.2024127,8.9608254" id="Fill-7"></path>
                <polygon id="Fill-10" points="125.337143 19.700127 125.995556 19.700127 125.995556 5.21250794 125.337143 5.21250794"></polygon>
                <polygon id="Fill-12" points="151.604635 10.504381 149.617968 6.89739683 147.604 6.89739683 149.593206 10.504381"></polygon>
                <polygon id="Fill-13" points="158.980635 6.89733333 156.969206 6.89733333 154.980635 10.5043175 156.992698 10.5043175"></polygon>
                <polygon id="Fill-14" points="156.312 17.6860317 156.312 12.5863492 159.296762 12.5863492 159.552635 11.1711111 154.299302 11.1711111 154.299302 6.0168254 152.286603 6.0168254 152.286603 11.1711111 147.331048 11.1711111 147.07454 12.5863492 150.312635 12.5863492 146.753905 19.0942857 148.767238 19.0942857 152.325968 12.5863492 154.299302 12.5863492 154.299302 17.6860317 154.299302 19.0942857 156.312 19.0942857 159.492952 19.0942857 159.831365 17.6860317"></polygon>
                <path d="M142.574413,11.383619 L141.764889,15.0325079 L140.922349,14.0991746 L138.946476,14.0991746 L140.425206,7.4312381 L141.685524,7.4312381 L140.808698,11.383619 L142.574413,11.383619 Z M136.929333,6.01663492 L136.929333,7.4312381 L138.698222,7.4312381 L136.110286,19.0940952 L137.83854,19.0940952 L138.944571,14.1061587 L140.274095,15.5772698 L139.493778,19.0947302 L141.220762,19.0947302 L141.662032,17.1125079 L143.452508,19.0947302 L145.435365,19.0947302 L143.150286,16.5664762 L144.302032,11.384254 L144.55981,10.2204444 L142.795365,10.2204444 L143.728063,6.01726984 L136.929333,6.01726984 L136.929333,6.01663492 Z" id="Fill-15"></path>
                <polygon id="Fill-16" points="136.981651 8.47904762 135.130857 8.47904762 135.130857 6.0168254 133.521333 6.0168254 133.521333 8.47904762 131.841333 8.47904762 131.609587 9.89365079 132.762603 9.89365079 131.377206 15.755873 132.719429 15.755873 133.521333 12.3653968 133.521333 19.0942857 135.130857 19.0942857 135.130857 12.1926984 135.511175 13.2796825 136.642603 13.2796825 135.456571 9.89365079 136.697841 9.89365079"></polygon>
                <path d="M39.5433651,6.01873016 L42.6817778,6.01873016 L42.6817778,17.9336508 C42.6817778,20.9907937 41.8570159,22.7006349 37.9141587,22.7006349 L37.9141587,19.5622222 C38.839873,19.5622222 39.5433651,19.06 39.5433651,17.9336508 L39.5433651,6.01873016 Z" id="Fill-17"></path>
                <polygon id="Fill-18" points="44.9549206 19.0950476 48.0939683 19.0950476 48.0939683 6.01885714 44.9549206 6.01885714"></polygon>
                <path d="M57.3046984,11.5107302 L60.563746,11.5107302 L63.1789841,11.5107302 L63.1789841,19.0948571 L60.563746,19.0948571 L60.563746,18.0491429 C59.4577143,18.8332698 58.1097778,19.2954921 56.6412063,19.2954921 C52.9193016,19.2954921 49.9015238,16.2783492 49.9015238,12.5564444 C49.9015238,8.83453968 52.9193016,5.81739683 56.6412063,5.81739683 C58.3104127,5.81739683 59.8393016,6.42120635 61.0266032,7.42692063 L59.0151746,9.41866667 C58.3313651,8.9151746 57.5072381,8.63390476 56.6418413,8.63390476 C55.5954921,8.63390476 54.6100952,9.03644444 53.8856508,9.78057143 C53.1415238,10.5246984 52.7186667,11.5107302 52.7186667,12.5570794 C52.7186667,13.6034286 53.1415238,14.5881905 53.8856508,15.3342222 C54.6100952,16.0580317 55.5954921,16.4808889 56.6418413,16.4808889 C57.6875556,16.4808889 58.6735873,16.0580317 59.4177143,15.3342222 C59.5586667,15.192 60.1421587,14.5894603 60.3231111,14.1266032 L57.3046984,11.5107302 Z" id="Fill-19"></path>
                <path d="M70.3276825,19.0940952 C72.6610159,19.0940952 75.900381,17.223619 75.900381,13.5220317 L75.900381,6.01853968 L72.9829206,6.01853968 L72.9829206,13.5220317 C72.9829206,14.3271111 72.7016508,14.9702857 72.1181587,15.4540952 C71.5346667,15.9563175 70.7905397,16.1779048 70.3276825,16.1779048 C69.8648254,16.1779048 69.1200635,15.9563175 68.5378413,15.4540952 C67.9543492,14.9709206 67.6724444,14.327746 67.6724444,13.5220317 L67.6724444,6.01853968 L64.7549841,6.01853968 L64.7549841,13.5220317 C64.7549841,17.223619 67.9943492,19.0940952 70.3276825,19.0940952" id="Fill-20"></path>
                <polygon id="Fill-21" points="103.752508 6.01873016 103.752508 19.0942857 95.0820317 12.7177778 95.0820317 19.0942857 91.944254 19.0942857 91.944254 6.01873016 100.61346 12.6974603 100.61346 6.01873016"></polygon>
                <path d="M112.689714,11.5107302 L115.947492,11.5107302 L118.56273,11.5107302 L118.56273,19.0948571 L115.947492,19.0948571 L115.947492,18.0491429 C114.84146,18.8332698 113.494159,19.2954921 112.024952,19.2954921 C108.303683,19.2954921 105.28527,16.2783492 105.28527,12.5564444 C105.28527,8.83453968 108.302413,5.81739683 112.024952,5.81739683 C113.694159,5.81739683 115.223048,6.42120635 116.409714,7.42692063 L114.398286,9.41866667 C113.713841,8.9151746 112.889079,8.63390476 112.024952,8.63390476 C110.979238,8.63390476 109.992571,9.03644444 109.268762,9.78057143 C108.524635,10.5246984 108.102413,11.5107302 108.102413,12.5570794 C108.102413,13.6034286 108.524635,14.5881905 109.268762,15.3342222 C109.992571,16.0580317 110.979238,16.4808889 112.024952,16.4808889 C113.070667,16.4808889 114.056063,16.0580317 114.80146,15.3342222 C114.941778,15.192 115.525905,14.5894603 115.706857,14.1266032 L112.689714,11.5107302 Z" id="Fill-22"></path>
                <path d="M83.3351746,12.0516825 L84.5224762,14.3450159 L82.1281905,14.3450159 L83.3351746,12.0516825 Z M80.8608889,16.799619 L85.7885079,16.799619 L86.9904127,19.0942222 L90.6081905,19.0942222 L83.3345397,5.55326984 L76.0564444,19.0942222 L79.6729524,19.0942222 L80.8608889,16.799619 Z" id="Fill-23"></path>
            </g>
        </g>
    </g>
</svg>