<?xml version="1.0" encoding="UTF-8"?>
<svg width="24px" height="24px" viewBox="0 0 24 24" version="1.1" xmlns="http://www.w3.org/2000/svg" xmlns:xlink="http://www.w3.org/1999/xlink">
    <!-- Generator: Sketch 45.1 (43504) - http://www.bohemiancoding.com/sketch -->
    <title>发送文件 未下载@1x</title>
    <desc>Created with Sketch.</desc>
    <defs>
        <circle id="path-1" cx="12" cy="12" r="12"></circle>
    </defs>
    <g id="Welcome" stroke="none" stroke-width="1" fill="none" fill-rule="evenodd">
        <g id="Artboard-2" transform="translate(-278.000000, -222.000000)">
            <g id="Group" transform="translate(278.000000, 222.000000)">
                <g id="Oval-14-Copy-3">
                    <use fill="#56D02D" fill-rule="evenodd" xlink:href="#path-1"></use>
                    <circle stroke="#FFFFFF" stroke-width="1" cx="12" cy="12" r="11.5"></circle>
                </g>
                <rect id="Rectangle-12-Copy" fill="#FFFFFF" x="11" y="5" width="2" height="14" rx="1"></rect>
                <path d="M13.0506607,13.6386306 L13.0506607,17.861187 L13.0506607,18.4626908 C13.0506607,18.9607359 13.4986607,19.3649464 14.0506607,19.3649464 C14.6026607,19.3649464 15.0506607,18.9607359 15.0506607,18.4626908 L15.0506607,17.861187 L15.0506607,13.6386306 C15.0506607,13.1405855 14.6026607,12.736375 14.0506607,12.736375 C13.4986607,12.736375 13.0506607,13.1405855 13.0506607,13.6386306 Z" id="Combined-Shape-Copy-5" fill="#FFFFFF" transform="translate(14.050661, 16.050661) rotate(45.000000) translate(-14.050661, -16.050661) "></path>
                <path d="M9.05066068,13.6386306 L9.05066068,17.861187 L9.05066068,18.4626908 C9.05066068,18.9607359 9.49866068,19.3649464 10.0506607,19.3649464 C10.6026607,19.3649464 11.0506607,18.9607359 11.0506607,18.4626908 L11.0506607,17.861187 L11.0506607,13.6386306 C11.0506607,13.1405855 10.6026607,12.736375 10.0506607,12.736375 C9.49866068,12.736375 9.05066068,13.1405855 9.05066068,13.6386306 Z" id="Combined-Shape-Copy-6" fill="#FFFFFF" transform="translate(10.050661, 16.050661) scale(-1, 1) rotate(45.000000) translate(-10.050661, -16.050661) "></path>
            </g>
        </g>
    </g>
</svg>