<?xml version="1.0" encoding="UTF-8"?>
<svg width="26px" height="26px" viewBox="0 0 26 26" version="1.1" xmlns="http://www.w3.org/2000/svg" xmlns:xlink="http://www.w3.org/1999/xlink">
    <!-- Generator: Sketch 45.1 (43504) - http://www.bohemiancoding.com/sketch -->
    <title>下载@1x</title>
    <desc>Created with Sketch.</desc>
    <defs></defs>
    <g id="Welcome" stroke="none" stroke-width="1" fill="none" fill-rule="evenodd">
        <g id="Artboard-2" transform="translate(-431.000000, -578.000000)" fill="#FFFFFF">
            <g id="Group-16" transform="translate(432.000000, 580.000000)">
                <path d="M1.46789818,20.9027927 L22.3649164,20.9027927 C22.37888,20.6425745 22.4037527,20.3886109 22.40448,20.1343564 C22.4085527,18.7294109 22.4134982,17.3241745 22.4033164,15.9192291 C22.3995345,15.4031564 22.5074618,14.9679564 23.1172073,14.95632 C23.7112436,14.9449745 23.8790982,15.3318836 23.8742982,15.8741382 C23.8603345,17.4728291 23.8799709,19.0718109 23.8660073,20.6705018 C23.8562618,21.7950109 23.2318255,22.3945745 22.0916073,22.3951564 C15.3813527,22.3982109 8.67109818,22.3992291 1.96084364,22.3967564 C0.531170909,22.39632 0.00520727273,21.8569745 0.00288,20.4124655 C0.000407272727,18.9105018 0.00724363636,17.4085382 0.000116363636,15.9065745 C-0.00235636364,15.3932655 0.0980072727,14.9651927 0.723025455,14.9567564 C1.34368,14.9484655 1.47226182,15.35952 1.47022545,15.8818473 C1.46397091,17.5256291 1.46789818,19.1694109 1.46789818,20.9027927" id="Fill-1"></path>
                <path d="M11.2045527,14.1500218 L11.2045527,3.12442182 C11.2045527,2.37314909 11.2138618,1.62187636 11.2016436,0.870894545 C11.1933527,0.352494545 11.3949527,0.00602181818 11.9392436,5.81818182e-05 C12.5005527,-0.00605090909 12.6710255,0.371258182 12.6701527,0.873512727 C12.6652073,4.02347636 12.6631709,7.17344 12.6608436,10.3234036 C12.6598255,11.5522036 12.6606982,12.7808582 12.6606982,14.1980218 C13.0058618,13.8988218 13.2426618,13.7184582 13.4506618,13.5095855 C14.85808,12.0954764 16.2560436,10.6719127 17.6650618,9.25954909 C18.0092073,8.91467636 18.4688436,8.64107636 18.8621527,9.05736727 C19.2361164,9.45300364 19.1187345,9.96078545 18.7207709,10.3555491 C16.68368,12.3763491 14.64208,14.3924945 12.6102255,16.4183855 C12.1297891,16.8973673 11.7006982,16.8569309 11.2390255,16.3961309 C9.21968,14.3799855 7.19495273,12.3690764 5.16717091,10.3613673 C4.76600727,9.96413091 4.63131636,9.51060364 5.03044364,9.08747636 C5.45502545,8.63758545 5.87728,8.92544 6.22142545,9.27104 C7.73386182,10.7900218 9.23742545,12.3181673 10.7484073,13.8387491 C10.84368,13.9347491 10.9745891,13.9952582 11.2045527,14.1500218" id="Fill-4"></path>
            </g>
        </g>
    </g>
</svg>