<?xml version="1.0" encoding="UTF-8"?>
<svg width="20px" height="20px" viewBox="0 0 20 20" version="1.1" xmlns="http://www.w3.org/2000/svg" xmlns:xlink="http://www.w3.org/1999/xlink">
    <!-- Generator: Sketch 45.1 (43504) - http://www.bohemiancoding.com/sketch -->
    <title>emoji@1x</title>
    <desc>Created with Sketch.</desc>
    <defs></defs>
    <g id="Welcome" stroke="none" stroke-width="1" fill="none" fill-rule="evenodd">
        <g id="Artboard-2" transform="translate(-562.000000, -377.000000)">
            <g id="Group-10" transform="translate(562.000000, 377.000000)">
                <g id="Group-9">
                    <circle id="Oval-9-Copy" fill="#FFC51C" cx="10" cy="10" r="10"></circle>
                    <path d="M10.0024286,15.7144643 C14.2881429,15.7144643 15.0024286,12.1430357 15.0024286,12.1430357 L4.64528571,12.1430357 C4.64528571,12.1430357 5.4935,15.7144643 10.0024286,15.7144643 M13.7392143,9.28089286 C14.4456429,9.27732143 15.006,8.72517857 15.0031429,8.03553571 C15.0002857,7.32482143 14.431,6.77589286 13.7077857,6.78589286 C13.0124286,6.79553571 12.4445714,7.36767857 12.4549286,8.04767857 C12.466,8.73267857 13.041,9.28482143 13.7392143,9.28089286 M5.96885714,9.28517857 C6.72778571,9.24375 7.19671429,8.67553571 7.196,8.03303571 C7.19492857,7.33839286 6.63814286,6.79017857 5.93064286,6.78660714 C5.22635714,6.78267857 4.65278571,7.32982143 4.64278571,8.01517857 C4.63314286,8.71125 5.241,9.32553571 5.96885714,9.28517857" id="Fill-1" fill="#B27200"></path>
                </g>
            </g>
        </g>
    </g>
</svg>