<?xml version="1.0" encoding="UTF-8"?>
<svg width="24px" height="24px" viewBox="0 0 24 24" version="1.1" xmlns="http://www.w3.org/2000/svg" xmlns:xlink="http://www.w3.org/1999/xlink">
    <!-- Generator: Sketch 45.1 (43504) - http://www.bohemiancoding.com/sketch -->
    <title>表情 点选@1x</title>
    <desc>Created with Sketch.</desc>
    <defs></defs>
    <g id="Welcome" stroke="none" stroke-width="1" fill="none" fill-rule="evenodd">
        <g id="Artboard-2" transform="translate(-28.000000, -308.000000)">
            <g id="Page-1-Copy" transform="translate(34.000000, 316.000000)" fill="#28C7C6">
                <path d="M6.43148571,10.7145 C11.5743429,10.7145 12.4314857,6.42878571 12.4314857,6.42878571 L0.00291428571,6.42878571 C0.00291428571,6.42878571 1.02077143,10.7145 6.43148571,10.7145 M10.9156286,2.99421429 C11.7633429,2.98992857 12.4357714,2.32735714 12.4323429,1.49978571 C12.4289143,0.646928571 11.7457714,-0.0117857143 10.8779143,0.000214285714 C10.0434857,0.0117857143 9.36205714,0.698357143 9.37448571,1.51435714 C9.38777143,2.33635714 10.0777714,2.99892857 10.9156286,2.99421429 M1.5912,2.99935714 C2.50191429,2.94964286 3.06462857,2.26778571 3.06377143,1.49678571 C3.06248571,0.663214286 2.39434286,0.00535714286 1.54534286,0.00107142857 C0.7002,-0.00364285714 0.0119142857,0.652928571 -8.57142857e-05,1.47535714 C-0.0116571429,2.31064286 0.717771429,3.04778571 1.5912,2.99935714" id="Fill-1"></path>
            </g>
            <circle id="Oval-9-Copy-2" stroke="#28C7C6" cx="40" cy="320" r="11.5"></circle>
        </g>
    </g>
</svg>