<?xml version="1.0" encoding="UTF-8"?>
<svg width="30px" height="20px" viewBox="0 0 30 20" version="1.1" xmlns="http://www.w3.org/2000/svg" xmlns:xlink="http://www.w3.org/1999/xlink">
    <!-- Generator: Sketch 45.1 (43504) - http://www.bohemiancoding.com/sketch -->
    <title>光光@1x</title>
    <desc>Created with Sketch.</desc>
    <defs>
        <polygon id="path-1" points="2.63155867e-21 0.00316504854 2.63155867e-21 19.8058252 28.2539806 19.8058252 28.2539806 0.00316504854 0 0.00316504854"></polygon>
    </defs>
    <g id="Welcome" stroke="none" stroke-width="1" fill="none" fill-rule="evenodd">
        <g id="Artboard-2" transform="translate(-603.000000, -377.000000)">
            <g id="Page-1" transform="translate(604.000000, 377.000000)">
                <path d="M27.9627767,5.90728155 C27.9627767,4.41330097 26.7517087,3.20223301 25.2577282,3.20223301 C24.4357864,3.20223301 23.700835,3.57019417 23.2047184,4.14883495 C21.0701553,1.61 18.185301,0.485533981 14.1270485,0.485533981 C10.0687961,0.485533981 7.18374757,1.61 5.04918447,4.14864078 C4.55306796,3.57019417 3.81831068,3.20223301 2.99617476,3.20223301 C1.50238835,3.20223301 0.291320388,4.41330097 0.291320388,5.90728155 C0.291320388,7.24650485 1.26549515,8.35563107 2.5435534,8.57135922 C2.16297087,9.53990291 1.81598058,10.601068 1.49792233,11.7653398 C1.27190291,12.5929126 0.291320388,19.7057282 14.123165,19.7057282 L14.130932,19.7057282 C27.9627767,19.7057282 26.982,12.5929126 26.7559806,11.7653398 C26.4379223,10.601068 26.0907379,9.53990291 25.7103495,8.5715534 C26.9884078,8.35563107 27.9627767,7.24650485 27.9627767,5.90728155" id="Fill-1" fill="#FEFEFE"></path>
                <g id="Group-5" transform="translate(0.000000, 0.191068)">
                    <mask id="mask-2" fill="white">
                        <use xlink:href="#path-1"></use>
                    </mask>
                    <g id="Clip-4"></g>
                    <path d="M2.99625243,3.30238835 C1.66537864,3.30238835 0.582466019,4.38530097 0.582466019,5.71617476 C0.582466019,6.89695146 1.42770874,7.89656311 2.59198058,8.09306796 C2.67858252,8.10782524 2.75392233,8.16064078 2.79702913,8.23695146 C2.8403301,8.31345631 2.84673786,8.4051068 2.81450485,8.48685437 C2.44130097,9.43714563 2.09275728,10.5018058 1.7787767,11.6511262 C1.77333981,11.6711262 1.24732039,13.6835534 2.74790291,15.6487961 C4.53353398,17.9872427 8.46693204,19.2233592 14.1230485,19.2233592 L14.1308155,19.2233592 C19.7873204,19.2233592 23.7207184,17.9872427 25.5061553,15.6486019 C27.0065437,13.6833592 26.4805243,11.6711262 26.4750874,11.6511262 C26.1611068,10.502 25.8125631,9.43733981 25.4393592,8.48685437 C25.4073204,8.40530097 25.4137282,8.31345631 25.456835,8.23714563 C25.5001359,8.16064078 25.5754757,8.10782524 25.6620777,8.09326214 C26.8263495,7.89656311 27.6715922,6.89695146 27.6715922,5.71617476 C27.6715922,4.38530097 26.5886796,3.30238835 25.2576117,3.30238835 C24.5539223,3.30238835 23.8861553,3.61034951 23.425767,4.14743689 C23.370233,4.21229126 23.2853786,4.2458835 23.2032427,4.24899029 C23.1178058,4.24860194 23.036835,4.21054369 22.9818835,4.1451068 C20.9401359,1.71675728 18.1263495,0.58568932 14.126932,0.58568932 C10.1275146,0.58568932 7.31392233,1.71656311 5.27217476,4.1451068 C5.2172233,4.21054369 5.13625243,4.24860194 5.05062136,4.24899029 L5.04926214,4.24899029 C4.96421359,4.24899029 4.88343689,4.21190291 4.82809709,4.14724272 C4.36770874,3.61034951 3.69994175,3.30238835 2.99625243,3.30238835 M14.1308155,19.8058835 L14.1230485,19.8058835 C8.1948932,19.8058835 4.21198058,18.5260777 2.28499029,16.0023883 C0.945961165,14.2487961 1.00091262,12.2889903 1.21683495,11.4977282 C1.50227184,10.4532621 1.81586408,9.47636893 2.15100971,8.58879612 C0.88576699,8.2204466 -5.82524272e-05,7.06316505 -5.82524272e-05,5.71617476 C-5.82524272e-05,4.06394175 1.34421359,2.71986408 2.99625243,2.71986408 C3.758,2.71986408 4.48537864,3.01015534 5.038,3.52568932 C7.17916505,1.1243301 10.0776117,0.00316504854 14.126932,0.00316504854 C18.1764466,0.00316504854 21.0748932,1.1243301 23.2160583,3.52568932 C23.7684854,3.01015534 24.4960583,2.71986408 25.2576117,2.71986408 C26.9098447,2.71986408 28.2541165,4.06394175 28.2541165,5.71617476 C28.2541165,7.06316505 27.3680971,8.2204466 26.1028544,8.58899029 C26.438,9.47656311 26.7515922,10.4534563 27.0370291,11.497534 C27.2531456,12.2887961 27.3080971,14.2484078 25.9692621,16.0021942 C24.0422718,18.5260777 20.0593592,19.8058835 14.1308155,19.8058835" id="Fill-3" fill="#44318E" mask="url(#mask-2)"></path>
                </g>
                <path d="M25.274,7.53642718 C26.1666214,7.52768932 26.8877864,6.80205825 26.8877864,5.90730097 C26.8877864,5.0071068 26.1578835,4.27720388 25.2576893,4.27720388 C24.6780777,4.27720388 24.1705049,4.58069903 23.8815728,5.03642718 C24.3901165,5.77157282 24.8516699,6.604 25.274,7.53642718" id="Fill-6" fill="#F5BCB7"></path>
                <path d="M2.97994175,7.53642718 C3.40207767,6.60380583 3.86382524,5.77157282 4.37236893,5.03642718 C4.08343689,4.58069903 3.57586408,4.27720388 2.99625243,4.27720388 C2.09605825,4.27720388 1.36615534,5.0071068 1.36615534,5.90730097 C1.36615534,6.80186408 2.08732039,7.52749515 2.97994175,7.53642718" id="Fill-8" fill="#F5BCB7"></path>
                <path d="M18.2635146,12.1081553 C18.2635146,13.5733981 16.4132233,14.7613592 14.1308932,14.7613592 C11.8483689,14.7613592 9.99827184,13.5733981 9.99827184,12.1081553 C9.99827184,10.6429126 11.8483689,9.45495146 14.1308932,9.45495146 C16.4132233,9.45495146 18.2635146,10.6429126 18.2635146,12.1081553" id="Fill-10" fill="#EEEEEE"></path>
                <path d="M15.7950874,10.3383107 C15.7950874,10.8260777 15.0500388,11.2216117 14.1308155,11.2216117 C13.2117864,11.2216117 12.4665437,10.8260777 12.4665437,10.3383107 C12.4665437,9.85054369 13.2117864,9.45500971 14.1308155,9.45500971 C15.0500388,9.45500971 15.7950874,9.85054369 15.7950874,10.3383107" id="Fill-12" fill="#231916"></path>
                <path d="M14.1308544,9.91365049 C14.7129903,9.91365049 15.2250291,10.0596699 15.5246408,10.2812233 C15.4345437,9.94219417 14.8456117,9.68025243 14.1308544,9.68025243 C13.4160971,9.68025243 12.827165,9.94219417 12.7372621,10.2812233 C13.0366796,10.0596699 13.5487184,9.91365049 14.1308544,9.91365049" id="Fill-14" fill="#B4B5B5"></path>
                <path d="M16.0591456,12.6006214 C14.9674951,12.6006214 14.4127379,12.2732427 14.1307961,11.9375146 C13.8488544,12.2732427 13.2940971,12.6006214 12.2026408,12.6006214 C12.0416699,12.6006214 11.9113786,12.4703301 11.9113786,12.3093592 C11.9113786,12.1483883 12.0416699,12.0180971 12.2026408,12.0180971 C13.7768155,12.0180971 13.8375922,11.2592621 13.839534,11.2167379 C13.8422524,11.0580971 13.971767,10.9303301 14.1307961,10.9303301 C14.2907961,10.9303301 14.420699,11.0594563 14.4220583,11.2188738 L14.4220583,11.2194563 L14.4220583,11.2198447 L14.4220583,11.2204272 L14.4220583,11.2212039 L14.4220583,11.2215922 C14.4234175,11.2487767 14.4740971,12.0180971 16.0591456,12.0180971 C16.2201165,12.0180971 16.3504078,12.1483883 16.3504078,12.3093592 C16.3504078,12.4703301 16.2201165,12.6006214 16.0591456,12.6006214" id="Fill-16" fill="#231916"></path>
                <path d="M10.5959806,8.11904854 C10.5959806,8.92332039 9.94394175,9.57535922 9.1396699,9.57535922 C8.33539806,9.57535922 7.68335922,8.92332039 7.68335922,8.11904854 C7.68335922,7.3147767 8.33539806,6.66273786 9.1396699,6.66273786 C9.94394175,6.66273786 10.5959806,7.3147767 10.5959806,8.11904854" id="Fill-18" fill="#231916"></path>
                <path d="M9.43083495,7.55642718 C9.43083495,7.90438835 9.14869903,8.1863301 8.80093204,8.1863301 C8.45297087,8.1863301 8.17102913,7.90438835 8.17102913,7.55642718 C8.17102913,7.20846602 8.45297087,6.92652427 8.80093204,6.92652427 C9.14869903,6.92652427 9.43083495,7.20846602 9.43083495,7.55642718" id="Fill-20" fill="#FEFEFE"></path>
                <path d="M10.159767,8.37058252 C10.159767,8.58883495 9.98287379,8.76572816 9.76462136,8.76572816 C9.54636893,8.76572816 9.36947573,8.58883495 9.36947573,8.37058252 C9.36947573,8.1523301 9.54636893,7.97543689 9.76462136,7.97543689 C9.98287379,7.97543689 10.159767,8.1523301 10.159767,8.37058252" id="Fill-22" fill="#FEFEFE"></path>
                <path d="M9.39642718,9.0623301 C9.39642718,9.22679612 9.26302913,9.36019417 9.09856311,9.36019417 C8.93429126,9.36019417 8.8008932,9.22679612 8.8008932,9.0623301 C8.8008932,8.89786408 8.93429126,8.76446602 9.09856311,8.76446602 C9.26302913,8.76446602 9.39642718,8.89786408 9.39642718,9.0623301" id="Fill-24" fill="#FEFEFE"></path>
                <path d="M20.7585049,8.11904854 C20.7585049,8.92332039 20.106466,9.57535922 19.3021942,9.57535922 C18.4977282,9.57535922 17.8458835,8.92332039 17.8458835,8.11904854 C17.8458835,7.3147767 18.4977282,6.66273786 19.3021942,6.66273786 C20.106466,6.66273786 20.7585049,7.3147767 20.7585049,8.11904854" id="Fill-26" fill="#231916"></path>
                <path d="M19.5932621,7.55642718 C19.5932621,7.90438835 19.3113204,8.1863301 18.9633592,8.1863301 C18.6153981,8.1863301 18.3334563,7.90438835 18.3334563,7.55642718 C18.3334563,7.20846602 18.6153981,6.92652427 18.9633592,6.92652427 C19.3113204,6.92652427 19.5932621,7.20846602 19.5932621,7.55642718" id="Fill-28" fill="#FEFEFE"></path>
                <path d="M20.3221748,8.37058252 C20.3221748,8.58883495 20.1452816,8.76572816 19.9272233,8.76572816 C19.7089709,8.76572816 19.5320777,8.58883495 19.5320777,8.37058252 C19.5320777,8.1523301 19.7089709,7.97543689 19.9272233,7.97543689 C20.1452816,7.97543689 20.3221748,8.1523301 20.3221748,8.37058252" id="Fill-30" fill="#FEFEFE"></path>
                <path d="M19.558932,9.0623301 C19.558932,9.22679612 19.425534,9.36019417 19.261068,9.36019417 C19.0966019,9.36019417 18.9633981,9.22679612 18.9633981,9.0623301 C18.9633981,8.89786408 19.0966019,8.76446602 19.261068,8.76446602 C19.425534,8.76446602 19.558932,8.89786408 19.558932,9.0623301" id="Fill-32" fill="#FEFEFE"></path>
                <path d="M6.81545631,12.1081553 C6.81545631,12.5464078 5.98225243,12.9015534 4.95448544,12.9015534 C3.92671845,12.9015534 3.09370874,12.5464078 3.09370874,12.1081553 C3.09370874,11.6699029 3.92671845,11.3147573 4.95448544,11.3147573 C5.98225243,11.3147573 6.81545631,11.6699029 6.81545631,12.1081553" id="Fill-34" fill="#F5BCB7"></path>
                <path d="M25.1759612,12.1081553 C25.1759612,12.5464078 24.3427573,12.9015534 23.3149903,12.9015534 C22.2874175,12.9015534 21.4542136,12.5464078 21.4542136,12.1081553 C21.4542136,11.6699029 22.2874175,11.3147573 23.3149903,11.3147573 C24.3427573,11.3147573 25.1759612,11.6699029 25.1759612,12.1081553" id="Fill-36" fill="#F5BCB7"></path>
            </g>
        </g>
    </g>
</svg>