<?xml version="1.0" encoding="UTF-8"?>
<svg width="50px" height="50px" viewBox="0 0 50 50" version="1.1" xmlns="http://www.w3.org/2000/svg" xmlns:xlink="http://www.w3.org/1999/xlink">
    <!-- Generator: Sketch 45.1 (43504) - http://www.bohemiancoding.com/sketch -->
    <title>其他@1x</title>
    <desc>Created with Sketch.</desc>
    <defs>
        <rect id="path-1" x="14.375" y="11.125" width="21.875" height="28.125"></rect>
    </defs>
    <g id="Welcome" stroke="none" stroke-width="1" fill="none" fill-rule="evenodd">
        <g id="Artboard-2" transform="translate(-397.000000, -216.000000)">
            <g id="Group-7" transform="translate(397.000000, 216.000000)">
                <g id="Group-4">
                    <g id="Rectangle-2">
                        <use fill="#D8D8D8" fill-rule="evenodd" xlink:href="#path-1"></use>
                        <rect stroke="#979797" stroke-width="1" x="14.875" y="11.625" width="20.875" height="27.125"></rect>
                    </g>
                    <path d="M0,4.99904135 C0,2.23814705 2.24553095,0 5.00003191,0 L44.9999681,0 C47.7614095,0 50,2.23991712 50,4.99904135 L50,44.8759587 C50,47.636853 47.754469,49.875 44.9999681,49.875 L5.00003191,49.875 C2.23859054,49.875 0,47.6350829 0,44.8759587 L0,4.99904135 Z" id="Rectangle-15-Copy-3" fill="#F1B167"></path>
                    <path d="M18.4865789,21.2465055 L25.2531202,21.2465055 L25.2531202,19.9086814 L18.4865789,19.9086814 L18.4865789,21.2465055 Z M18.4865789,33.2869232 L33.3729697,33.2869232 L33.3729697,31.949099 L18.4865789,31.949099 L18.4865789,33.2869232 Z M18.4865789,29.2734506 L33.3729697,29.2734506 L33.3729697,27.9356264 L18.4865789,27.9356264 L18.4865789,29.2734506 Z M18.4865789,25.2599781 L25.2531202,25.2599781 L25.2531202,23.9221539 L18.4865789,23.9221539 L18.4865789,25.2599781 Z M36.7562404,37.9693078 C36.7562404,38.7077868 36.1499583,39.307132 35.4029321,39.307132 L16.4566165,39.307132 C15.7095904,39.307132 15.1033083,38.7077868 15.1033083,37.9693078 L15.1033083,12.5506484 C15.1033083,11.8121694 15.7095904,11.2128242 16.4566165,11.2128242 L28.6363908,11.2128242 L28.6363908,17.233033 C28.6363908,18.7106598 29.8482784,19.9086814 31.3430073,19.9086814 L36.7562404,19.9086814 L36.7562404,37.9693078 Z M29.9896991,12.3238872 L35.913806,18.5708572 L31.3430073,18.5708572 C30.5959812,18.5708572 29.9896991,17.9715119 29.9896991,17.233033 L29.9896991,12.3238872 Z M37.8700131,19.0029744 L37.911289,18.7668484 L29.5586704,9.875 L26.6064284,9.875 L16.4566165,9.875 C14.9618875,9.875 13.75,11.0730216 13.75,12.5506484 L13.75,37.9693078 C13.75,39.4469346 14.9618875,40.6449562 16.4566165,40.6449562 L35.4029321,40.6449562 C36.8976611,40.6449562 38.1095486,39.4469346 38.1095486,37.9693078 L38.1095486,19.2397693 L37.8700131,19.0029744 Z" id="Fill-5" fill="#FFFFFF"></path>
                </g>
            </g>
        </g>
    </g>
</svg>