<?xml version="1.0" encoding="UTF-8"?>
<svg width="24px" height="24px" viewBox="0 0 24 24" version="1.1" xmlns="http://www.w3.org/2000/svg" xmlns:xlink="http://www.w3.org/1999/xlink">
    <!-- Generator: Sketch 45.1 (43504) - http://www.bohemiancoding.com/sketch -->
    <title>文件 常态@1x</title>
    <desc>Created with Sketch.</desc>
    <defs></defs>
    <g id="Welcome" stroke="none" stroke-width="1" fill="none" fill-rule="evenodd">
        <g id="Artboard-2" transform="translate(-68.000000, -264.000000)" fill="#808080">
            <g id="Group-18-Copy" transform="translate(68.000000, 265.000000)">
                <path d="M2,20 C1.51377612,20 0.990945399,19.4836871 0.990945399,19 L1,6 L23.0090546,6 L23.0090546,19 C23.0090546,19.4836871 22.4862239,20 22,20 L2,20 Z M2.5,0.985775249 L4.99601639,0.985775249 L6.5983751,0.985775249 L8.35069688,2.84264723 C8.44417606,2.94221053 8.57531117,2.99839972 8.71206163,2.99839972 L20.6651753,2.99839972 L21.894241,2.99839972 L22.1274435,2.99839972 C22.8917927,2.99839972 23.0090546,3.51631294 23.0090546,4 L23.0090546,4.74524609 L23.0090546,5.05346515 L1,5 L0.990945399,2.01262447 C0.990945399,1.52893741 1.51377612,0.985775249 2,0.985775249 M21.894241,2.01262447 L20.6651753,2.01262447 L8.92643615,2.01262447 L7.17411437,0.155752489 C7.14901042,0.129136558 7.12126395,0.106135135 7.09153559,0.0860910384 L7.00961744,0 L6.81274962,0 L4.99601639,0 L2,0 C0.970077415,0 0,0.988075391 0,2.01262447 L0,19 C0,20.0245491 0.970077415,21 2,21 L22,21 C23.0299226,21 24,20.0245491 24,19 L24,4.74524609 L24,4 C24,2.61630014 23.704368,2.01262447 22.1274435,2.01262447 L21.894241,2.01262447 Z" id="Fill-1"></path>
            </g>
        </g>
    </g>
</svg>