<?xml version="1.0" encoding="UTF-8"?>
<svg width="50px" height="50px" viewBox="0 0 50 50" version="1.1" xmlns="http://www.w3.org/2000/svg" xmlns:xlink="http://www.w3.org/1999/xlink">
    <!-- Generator: Sketch 45.1 (43504) - http://www.bohemiancoding.com/sketch -->
    <title>图片@1x</title>
    <desc>Created with Sketch.</desc>
    <defs>
        <polygon id="path-1" points="28.75 28.7499641 28.75 0 3.59374999e-05 0 3.59374999e-05 28.7499641"></polygon>
    </defs>
    <g id="Welcome" stroke="none" stroke-width="1" fill="none" fill-rule="evenodd">
        <g id="Artboard-2" transform="translate(-529.000000, -217.000000)">
            <rect id="Rectangle-15-Copy-6" fill="#529FFF" opacity="0.9" x="529" y="217" width="50" height="50" rx="5"></rect>
            <g id="Group-28" transform="translate(539.625000, 227.625000)">
                <mask id="mask-2" fill="white">
                    <use xlink:href="#path-1"></use>
                </mask>
                <g id="Clip-2"></g>
                <path d="M3.03136406,1.43890156 L25.7176297,1.43890156 C26.5952234,1.43890156 27.3110984,2.15585469 27.3110984,3.03129219 L27.3110984,17.0178078 L21.4834734,11.1970109 C21.2010047,10.9145422 20.7481922,10.9145422 20.4675203,11.1970109 L12.0541922,19.6096203 L7.39633281,14.9506828 C7.11386406,14.6689328 6.66212969,14.6689328 6.37930156,14.9506828 L1.43897344,19.8920891 L1.43897344,3.03129219 C1.43897344,2.15585469 2.15556719,1.43890156 3.03136406,1.43890156 L3.03136406,1.43890156 Z M25.7176297,27.3110266 L3.03136406,27.3110266 C2.15556719,27.3110266 1.43897344,26.5951516 1.43897344,25.7179172 L1.43897344,21.9293859 L6.89105156,16.4773078 L11.5489109,21.1376828 C11.8313797,21.4187141 12.2834734,21.4187141 12.5659422,21.1376828 L20.9781922,12.7247141 L27.3110984,19.0565422 L27.3110984,25.7179172 C27.3110984,26.5951516 26.5952234,27.3110266 25.7176297,27.3110266 L25.7176297,27.3110266 Z M3.59374999e-05,25.7179172 C3.59374999e-05,27.3918859 1.36242656,28.7499641 3.03136406,28.7499641 L25.7176297,28.7499641 C27.3919578,28.7499641 28.7500359,27.3882922 28.7500359,25.7179172 L28.7500359,3.03129219 C28.7500359,1.35732344 27.3883641,-3.59374999e-05 25.7176297,-3.59374999e-05 L3.03136406,-3.59374999e-05 C1.35739531,-3.59374999e-05 3.59374999e-05,1.36271406 3.59374999e-05,3.03129219 L3.59374999e-05,25.7179172 Z" id="Fill-1" fill="#FFFFFF" mask="url(#mask-2)"></path>
                <path d="M8.91156562,5.63981562 C10.1391906,5.63981562 11.1321438,6.63815937 11.1321438,7.86039375 C11.1321438,9.08190937 10.1338,10.0809719 8.91156562,10.0809719 C7.68933125,10.0809719 6.6909875,9.08190937 6.6909875,7.86039375 C6.6909875,6.63815937 7.68394062,5.63981562 8.91156562,5.63981562 M8.91156562,11.5199094 C10.9323312,11.5199094 12.5710813,9.87505 12.5710813,7.86039375 C12.5710813,5.84501875 10.9269406,4.20015937 8.91156562,4.20015937 C6.89726875,4.20015937 5.25205,5.84501875 5.25205,7.86039375 C5.25205,9.87505 6.8908,11.5199094 8.91156562,11.5199094" id="Fill-4" fill="#FFFFFF" mask="url(#mask-2)"></path>
            </g>
        </g>
    </g>
</svg>