<?xml version="1.0" encoding="UTF-8"?>
<svg width="24px" height="24px" viewBox="0 0 24 24" version="1.1" xmlns="http://www.w3.org/2000/svg" xmlns:xlink="http://www.w3.org/1999/xlink">
    <!-- Generator: Sketch 45.1 (43504) - http://www.bohemiancoding.com/sketch -->
    <title>文件 点选@1x</title>
    <desc>Created with Sketch.</desc>
    <defs></defs>
    <g id="Welcome" stroke="none" stroke-width="1" fill="none" fill-rule="evenodd">
        <g id="Artboard-2" transform="translate(-68.000000, -308.000000)" fill="#28C7C6">
            <path d="M70,329 C69.5137761,329 68.9909454,328.483687 68.9909454,328 L69,315 L91.0090546,315 L91.0090546,328 C91.0090546,328.483687 90.4862239,329 90,329 L70,329 Z M70.5,309.985775 L72.9960164,309.985775 L74.5983751,309.985775 L76.3506969,311.842647 C76.4441761,311.942211 76.5753112,311.9984 76.7120616,311.9984 L88.6651753,311.9984 L89.894241,311.9984 L90.1274435,311.9984 C90.8917927,311.9984 91.0090546,312.516313 91.0090546,313 L91.0090546,313.745246 L91.0090546,314.053465 L69,314 L68.9909454,311.012624 C68.9909454,310.528937 69.5137761,309.985775 70,309.985775 M89.894241,311.012624 L88.6651753,311.012624 L76.9264362,311.012624 L75.1741144,309.155752 C75.1490104,309.129137 75.121264,309.106135 75.0915356,309.086091 L75.0096174,309 L74.8127496,309 L72.9960164,309 L70,309 C68.9700774,309 68,309.988075 68,311.012624 L68,328 C68,329.024549 68.9700774,330 70,330 L90,330 C91.0299226,330 92,329.024549 92,328 L92,313.745246 L92,313 C92,311.6163 91.704368,311.012624 90.1274435,311.012624 L89.894241,311.012624 Z" id="Fill-1"></path>
        </g>
    </g>
</svg>