<?xml version="1.0" encoding="UTF-8"?>
<svg width="50px" height="50px" viewBox="0 0 50 50" version="1.1" xmlns="http://www.w3.org/2000/svg" xmlns:xlink="http://www.w3.org/1999/xlink">
    <!-- Generator: Sketch 45.1 (43504) - http://www.bohemiancoding.com/sketch -->
    <title>音乐@1x</title>
    <desc>Created with Sketch.</desc>
    <defs></defs>
    <g id="Welcome" stroke="none" stroke-width="1" fill="none" fill-rule="evenodd">
        <g id="Artboard-2" transform="translate(-459.000000, -147.000000)">
            <g id="Group-6" transform="translate(459.000000, 147.000000)">
                <g id="Group-2">
                    <rect id="Rectangle-15-Copy-2" fill="#886ED3" x="0" y="0" width="50" height="50" rx="5"></rect>
                    <path d="M36.6043265,36.3038015 C36.105896,37.0029887 35.2405652,37.4821347 34.2298589,37.6171263 C34.0404751,37.642839 33.8486189,37.6556954 33.6587406,37.6556954 C32.0447751,37.6556954 30.638489,36.7245995 30.3872959,35.4898961 C30.2730722,34.9266894 30.4026246,34.3624938 30.7611188,33.8591185 C31.2590548,33.1599312 32.1243856,32.6802908 33.1345974,32.5443102 C33.3239812,32.519092 33.5168264,32.5062357 33.7067047,32.5062357 C35.3221536,32.5062357 36.7284396,33.4373316 36.9776549,34.6715405 C37.0918786,35.2362306 36.9628207,35.7999318 36.6043265,36.3038015 L36.6043265,36.3038015 Z M17.5482599,17.93011 L17.5482599,14.0138702 L37.0112792,11.6764882 L37.0112792,15.592728 L17.5482599,17.93011 Z M13.6997631,38.9705036 C13.4999954,38.9972053 13.2972607,39.0110506 13.0969985,39.0110506 C11.453859,39.0110506 10.0272994,38.0853939 9.7775897,36.8571187 C9.66583841,36.3047904 9.79341289,35.7494953 10.1474568,35.2505703 C10.6572602,34.5325931 11.5527539,34.0400962 12.6025238,33.8976875 C12.8008081,33.8709859 13.0030483,33.8576351 13.2028161,33.8576351 C14.8469445,33.8576351 16.2754819,34.7832917 16.5246972,36.0115669 C16.5489265,36.1332077 16.557827,36.2548485 16.5593104,36.3759948 L16.5593104,36.4650003 C16.5464541,36.8645358 16.411957,37.2566543 16.1543356,37.6181153 C15.6440377,38.3355981 14.749533,38.8280949 13.6997631,38.9705036 L13.6997631,38.9705036 Z M37.9967673,34.8732861 C37.9967673,34.8673524 38.0002286,34.8619132 38.0002286,34.855485 L38.0002286,11.1192152 C38.0002286,10.9777955 37.9399027,10.8432983 37.8340851,10.7493481 C37.727773,10.6553979 37.5868478,10.6113897 37.4469114,10.6286963 L16.9934592,13.0842578 C16.9647797,13.0877191 16.940056,13.1010699 16.9138488,13.1089815 C16.8906085,13.1159041 16.8668737,13.1203544 16.8451168,13.1307384 C16.8065478,13.1485395 16.773418,13.1737577 16.7407827,13.2004593 C16.7269374,13.2128212 16.7111142,13.2212273 16.6977634,13.2345781 C16.6626556,13.2711692 16.635954,13.3141885 16.6132082,13.3601746 C16.6087579,13.3695697 16.6013408,13.3769868 16.597385,13.3863818 C16.5726613,13.4447298 16.557827,13.5080226 16.557827,13.5752711 L16.557827,18.487383 C16.557827,18.4898554 16.5593104,18.4918333 16.5593104,18.4938112 L16.5593104,34.1444304 C15.7577669,33.3577211 14.5467983,32.8686856 13.2028161,32.8686856 C12.95904,32.8686856 12.7127916,32.8850033 12.4700045,32.9176386 C11.1492626,33.0966385 10.0094983,33.7379722 9.341463,34.6779686 C8.83215404,35.3944625 8.64277022,36.2385308 8.80841925,37.0539196 C9.15504603,38.7608464 10.9588898,40 13.0969985,40 C13.341269,40 13.5890008,39.9826934 13.8322824,39.9500581 C15.1520354,39.7720472 16.2922941,39.1312079 16.959835,38.191706 C17.3094286,37.7006926 17.5042516,37.1503422 17.5418317,36.5901024 C17.5423262,36.5792239 17.5482599,36.5698289 17.5482599,36.5589504 L17.5482599,36.4921964 C17.5502378,36.4382986 17.5492488,36.3848953 17.5482599,36.3309976 L17.5482599,18.9254876 L37.0112792,16.5890945 L37.0112792,32.7885807 C36.2191307,32.0043438 35.0269521,31.5172862 33.7067047,31.5172862 C33.4728181,31.5172862 33.2359647,31.5336039 33.0035616,31.5642613 C31.7228721,31.736833 30.6122819,32.363827 29.9556195,33.2855278 C29.4418602,34.006472 29.250993,34.8589464 29.4181254,35.686697 C29.7672246,37.4010409 31.5503004,38.6446448 33.6587406,38.6446448 C33.8926271,38.6446448 34.1289861,38.6288216 34.3613892,38.5981642 C35.6425732,38.4255925 36.7536579,37.7985986 37.4098258,36.8773922 C37.8415022,36.2711662 38.0417645,35.5724734 37.9967673,34.8732861 L37.9967673,34.8732861 Z" id="Fill-3" fill="#FFFFFF"></path>
                </g>
            </g>
        </g>
    </g>
</svg>