<?xml version="1.0" encoding="UTF-8"?>
<svg width="50px" height="50px" viewBox="0 0 50 50" version="1.1" xmlns="http://www.w3.org/2000/svg" xmlns:xlink="http://www.w3.org/1999/xlink">
    <!-- Generator: Sketch 45.1 (43504) - http://www.bohemiancoding.com/sketch -->
    <title>文件@1x</title>
    <desc>Created with Sketch.</desc>
    <defs></defs>
    <g id="Welcome" stroke="none" stroke-width="1" fill="none" fill-rule="evenodd">
        <g id="Artboard-2" transform="translate(-397.000000, -147.000000)">
            <g id="Group-Copy-5" transform="translate(397.000000, 147.000000)">
                <rect id="Rectangle-15" fill="#2ECFCF" x="0" y="0" width="50" height="50" rx="5"></rect>
                <path d="M20,25.625 L35,25.625 L35,24.375 L20,24.375 L20,25.625 Z M30,21.875 L35,21.875 L35,20.625 L30,20.625 L30,21.875 Z M30,15.625 L35,15.625 L35,14.375 L30,14.375 L30,15.625 Z M38.125,36.25 C38.125,36.94 37.565,37.5 36.875,37.5 L13.125,37.5 C12.435,37.5 11.875,36.94 11.875,36.25 L11.875,15.625 C11.875,14.935 12.435,14.375 13.125,14.375 L15.625,14.375 L15.625,33.125 L16.875,33.125 L16.875,12.5 C16.875,11.81 17.435,11.25 18.125,11.25 L36.875,11.25 C37.565,11.25 38.125,11.81 38.125,12.5 L38.125,36.25 Z M36.875,10 L18.125,10 C16.744375,10 15.625,11.119375 15.625,12.5 L15.625,13.125 L13.125,13.125 C11.744375,13.125 10.625,14.244375 10.625,15.625 L10.625,36.25 C10.625,37.630625 11.744375,38.75 13.125,38.75 L36.875,38.75 C38.255625,38.75 39.375,37.630625 39.375,36.25 L39.375,12.5 C39.375,11.119375 38.255625,10 36.875,10 L36.875,10 Z M30,18.75 L35,18.75 L35,17.5 L30,17.5 L30,18.75 Z M21.25,20.625 L26.25,20.625 L26.25,15.625 L21.25,15.625 L21.25,20.625 Z M20,21.875 L27.5,21.875 L27.5,14.375 L20,14.375 L20,21.875 Z M20,33.125 L35,33.125 L35,31.875 L20,31.875 L20,33.125 Z M20,29.375 L35,29.375 L35,28.125 L20,28.125 L20,29.375 Z" id="Page-1" fill="#FFFFFF"></path>
            </g>
        </g>
    </g>
</svg>