<?xml version="1.0" encoding="UTF-8"?>
<svg width="24px" height="20px" viewBox="0 0 24 20" version="1.1" xmlns="http://www.w3.org/2000/svg" xmlns:xlink="http://www.w3.org/1999/xlink">
    <!-- Generator: Sketch 45.1 (43504) - http://www.bohemiancoding.com/sketch -->
    <title>群设置 常态@1x</title>
    <desc>Created with Sketch.</desc>
    <defs></defs>
    <g id="Welcome" stroke="none" stroke-width="1" fill="none" fill-rule="evenodd">
        <g id="Artboard-2" transform="translate(-678.000000, -44.000000)" fill="#808080">
            <g id="Group-2" transform="translate(679.000000, 44.000000)">
                <path d="M14.7791117,9.40884711 C16.736762,9.40884711 18.3291065,7.67291647 18.3291065,5.53825048 C18.3291065,3.40358449 16.736762,1.66710311 14.7791117,1.66710311 C14.4807158,1.66710311 14.2395169,1.41982111 14.2395169,1.11636369 C14.2395169,0.811804788 14.4807158,0.565624268 14.7791117,0.565624268 C17.3313956,0.565624268 19.4082963,2.79611891 19.4082963,5.53825048 C19.4082963,7.36670535 18.4818119,8.96384966 17.1090825,9.82795981 C20.0255929,10.8804228 22.1348693,13.8439517 22.1348693,17.3339873 C22.1348693,17.6385462 21.8936704,17.8847268 21.5952744,17.8847268 C21.2968784,17.8847268 21.0556795,17.6385462 21.0556795,17.3339873 C21.0556795,13.5735386 18.2400734,10.5152826 14.7791117,10.5152826 C14.4807158,10.5152826 14.2395169,10.2691021 14.2395169,9.96454319 C14.2395169,9.65557837 14.4807158,9.40884711 14.7791117,9.40884711 Z" id="Fill-1"></path>
                <path d="M4.60526576,5.66445174 C4.60526576,3.14364337 6.61419013,1.0937671 9.08345997,1.0937671 C11.5527298,1.0937671 13.5616542,3.14364337 13.5616542,5.66445174 C13.5616542,8.18472067 11.5527298,10.2345969 9.08345997,10.2345969 C6.61419013,10.2345969 4.60526576,8.18472067 4.60526576,5.66445174 Z M14.6187046,5.66445174 C14.6187046,2.54863981 12.1356931,0.0148848492 9.08345997,0.0148848492 C6.03122681,0.0148848492 3.54821531,2.54863981 3.54821531,5.66445174 C3.54821531,8.7570677 5.99581562,11.2746394 9.01845137,11.310782 C9.05333404,11.3145581 9.08663113,11.3258863 9.12257084,11.3226497 C13.3930546,11.3248075 16.8998195,14.9029204 16.8998195,19.3026022 C16.8998195,19.6003737 17.1360703,19.8415039 17.4283447,19.8415039 C17.7206192,19.8415039 17.95687,19.6003737 17.95687,19.3026022 C17.95687,15.2341373 15.3147724,11.7849507 11.6906749,10.6456511 C13.431637,9.69245861 14.6187046,7.81790071 14.6187046,5.66445174 Z M1.72850296,14.2501967 C0.904003615,15.4763463 0.209521471,17.1842169 0.210049996,19.3026022 C0.210049996,19.6003737 0.446300771,19.8415039 0.73857522,19.8415039 C1.03084967,19.8415039 1.26551487,19.6003737 1.26710044,19.3026022 C1.28348473,16.5746485 2.68724772,13.7679363 5.30661873,12.3055114 C5.56242494,12.1625595 5.51168651,11.7531237 5.30556168,11.5427417 C5.09890831,11.3328991 4.74532494,11.4041053 4.49586103,11.5594643 C3.90127016,11.9305998 2.71367398,12.7850746 1.72850296,14.2501967 Z" id="Fill-1-Copy-7"></path>
            </g>
        </g>
    </g>
</svg>