<?xml version="1.0" encoding="UTF-8"?>
<svg width="22px" height="20px" viewBox="0 0 22 20" version="1.1" xmlns="http://www.w3.org/2000/svg" xmlns:xlink="http://www.w3.org/1999/xlink">
    <!-- Generator: Sketch 45.1 (43504) - http://www.bohemiancoding.com/sketch -->
    <title>群组@1x</title>
    <desc>Created with Sketch.</desc>
    <defs></defs>
    <g id="Welcome" stroke="none" stroke-width="1" fill="none" fill-rule="evenodd">
        <g id="Artboard-2" transform="translate(-28.000000, -449.000000)" fill="#808080">
            <path d="M42.4856354,458.958901 C44.2475206,458.958901 45.6806307,457.396563 45.6806307,455.475364 C45.6806307,453.554164 44.2475206,451.991331 42.4856354,451.991331 C42.217079,451.991331 42,451.768777 42,451.495665 C42,451.221562 42.217079,451 42.4856354,451 C44.7826909,451 46.6519015,453.007445 46.6519015,455.475364 C46.6519015,457.120973 45.8180655,458.558403 44.5826091,459.336102 C47.2074684,460.283319 49.1058172,462.950495 49.1058172,466.091527 C49.1058172,466.36563 48.8887382,466.587192 48.6201818,466.587192 C48.3516254,466.587192 48.1345464,466.36563 48.1345464,466.091527 C48.1345464,462.707123 45.6005009,459.954693 42.4856354,459.954693 C42.217079,459.954693 42,459.73313 42,459.459027 C42,459.180959 42.217079,458.958901 42.4856354,458.958901 Z" id="Fill-1"></path>
            <path d="M32.9556945,455.08461 C32.9556945,452.815883 34.7637264,450.970994 36.9860693,450.970994 C39.2084121,450.970994 41.016444,452.815883 41.016444,455.08461 C41.016444,457.352852 39.2084121,459.197741 36.9860693,459.197741 C34.7637264,459.197741 32.9556945,457.352852 32.9556945,455.08461 Z M41.9677895,455.08461 C41.9677895,452.280379 39.7330791,450 36.9860693,450 C34.2390594,450 32.0043491,452.280379 32.0043491,455.08461 C32.0043491,457.867965 34.2071893,460.133779 36.9275615,460.166307 C36.9589559,460.169706 36.9889233,460.179901 37.021269,460.176988 C40.8647045,460.17893 44.0207928,463.399232 44.0207928,467.358946 C44.0207928,467.62694 44.2334185,467.843957 44.4964655,467.843957 C44.7595125,467.843957 44.9721382,467.62694 44.9721382,467.358946 C44.9721382,463.697327 42.5942504,460.593059 39.3325627,459.56769 C40.8994286,458.709816 41.9677895,457.022714 41.9677895,455.08461 Z M30.3666079,462.811781 C29.6245585,463.915315 28.9995246,465.452399 29.0000003,467.358946 C29.0000003,467.62694 29.212626,467.843957 29.475673,467.843957 C29.73872,467.843957 29.9499187,467.62694 29.9513457,467.358946 C29.9660915,464.903787 31.2294782,462.377746 33.5869121,461.061564 C33.8171377,460.932907 33.7714731,460.564415 33.5859608,460.375071 C33.3999728,460.186213 33.0817477,460.250298 32.8572302,460.390122 C32.3220984,460.724143 31.2532619,461.493171 30.3666079,462.811781 Z" id="Fill-1-Copy-7"></path>
        </g>
    </g>
</svg>