<?xml version="1.0" encoding="UTF-8"?>
<svg width="60px" height="60px" viewBox="0 0 60 60" version="1.1" xmlns="http://www.w3.org/2000/svg" xmlns:xlink="http://www.w3.org/1999/xlink">
    <!-- Generator: Sketch 45.1 (43504) - http://www.bohemiancoding.com/sketch -->
    <title>群组头像60px @1x</title>
    <desc>Created with Sketch.</desc>
    <defs></defs>
    <g id="Welcome" stroke="none" stroke-width="1" fill="none" fill-rule="evenodd">
        <g id="Artboard-2" transform="translate(-249.000000, -83.000000)">
            <g id="Group-8-Copy-3" transform="translate(249.000000, 83.000000)">
                <g id="Page-1">
                    <polygon id="Fill-1" fill="#2DD0CF" points="0 60 60 60 60 0 0 0"></polygon>
                    <g id="Group-10" transform="translate(7.200000, 14.400000)">
                        <path d="M22.51404,7.59084 C22.44744,11.86824 19.06044,15.15564 14.79264,15.08364 C10.67004,15.01464 7.41804,11.55384 7.48584,7.30884 C7.54944,3.29904 11.01564,-0.02556 15.07404,0.03264 C19.22484,0.09324 22.57704,3.49824 22.51404,7.59084" id="Fill-2" fill="#FFFFFF"></path>
                        <path d="M19.22226,16.24626 C17.91546,16.97766 16.39806,17.38746 14.76186,17.35986 C13.29846,17.33526 11.93106,16.93686 10.74126,16.25646 C4.79046,18.07686 0.46146,23.61126 0.46146,30.15846 C0.46146,30.80826 0.50886,31.44606 0.59166,32.07306 L29.40846,32.07306 C29.49006,31.44606 29.53686,30.80826 29.53686,30.15846 C29.53686,23.59866 25.19166,18.05586 19.22226,16.24626" id="Fill-4" fill="#ABECEC"></path>
                        <path d="M36.70662,13.6371 C36.65622,16.8579 34.10502,19.3335 30.89202,19.2795 C27.78702,19.2273 25.33842,16.6215 25.38942,13.4247 C25.43682,10.4049 28.04742,7.9011 31.10322,7.9461 C34.22922,7.9911 36.75342,10.5549 36.70662,13.6371" id="Fill-6" fill="#FFFFFF"></path>
                        <path d="M30.86814,20.99328 C29.76594,20.97468 28.73694,20.67468 27.84054,20.16228 C27.71334,20.20128 27.58974,20.25048 27.46434,20.29368 C29.86434,22.88628 31.33734,26.34768 31.33734,30.15888 C31.33734,30.80808 31.28994,31.44588 31.20834,32.07288 L41.89794,32.07288 C41.95914,31.60068 41.99514,31.12008 41.99514,30.63108 C41.99514,25.69188 38.72214,21.51768 34.22694,20.15508 C33.24294,20.70528 32.09994,21.01428 30.86814,20.99328 Z" id="Fill-8" fill="#ABECEC"></path>
                    </g>
                </g>
            </g>
        </g>
    </g>
</svg>