<?xml version="1.0" encoding="UTF-8"?>
<svg width="22px" height="20px" viewBox="0 0 22 20" version="1.1" xmlns="http://www.w3.org/2000/svg" xmlns:xlink="http://www.w3.org/1999/xlink">
    <!-- Generator: Sketch 45.1 (43504) - http://www.bohemiancoding.com/sketch -->
    <title>群组 pre@1x</title>
    <desc>Created with Sketch.</desc>
    <defs></defs>
    <g id="Welcome" stroke="none" stroke-width="1" fill="none" fill-rule="evenodd">
        <g id="Artboard-2" transform="translate(-59.000000, -449.000000)" fill="#28C7C6">
            <path d="M73.4856354,457.958901 C75.2475206,457.958901 76.6806307,456.396563 76.6806307,454.475364 C76.6806307,452.554164 75.2475206,450.991331 73.4856354,450.991331 C73.217079,450.991331 73,450.768777 73,450.495665 C73,450.221562 73.217079,450 73.4856354,450 C75.7826909,450 77.6519015,452.007445 77.6519015,454.475364 C77.6519015,456.120973 76.8180655,457.558403 75.5826091,458.336102 C78.2074684,459.283319 80.1058172,461.950495 80.1058172,465.091527 C80.1058172,465.36563 79.8887382,465.587192 79.6201818,465.587192 C79.3516254,465.587192 79.1345464,465.36563 79.1345464,465.091527 C79.1345464,461.707123 76.6005009,458.954693 73.4856354,458.954693 C73.217079,458.954693 73,458.73313 73,458.459027 C73,458.180959 73.217079,457.958901 73.4856354,457.958901 Z" id="Fill-1-Copy-5"></path>
            <path d="M63.9556945,455.08461 C63.9556945,452.815883 65.7637264,450.970994 67.9860693,450.970994 C70.2084121,450.970994 72.016444,452.815883 72.016444,455.08461 C72.016444,457.352852 70.2084121,459.197741 67.9860693,459.197741 C65.7637264,459.197741 63.9556945,457.352852 63.9556945,455.08461 Z M72.9677895,455.08461 C72.9677895,452.280379 70.7330791,450 67.9860693,450 C65.2390594,450 63.0043491,452.280379 63.0043491,455.08461 C63.0043491,457.867965 65.2071893,460.133779 67.9275615,460.166307 C67.9589559,460.169706 67.9889233,460.179901 68.021269,460.176988 C71.8647045,460.17893 75.0207928,463.399232 75.0207928,467.358946 C75.0207928,467.62694 75.2334185,467.843957 75.4964655,467.843957 C75.7595125,467.843957 75.9721382,467.62694 75.9721382,467.358946 C75.9721382,463.697327 73.5942504,460.593059 70.3325627,459.56769 C71.8994286,458.709816 72.9677895,457.022714 72.9677895,455.08461 Z M61.3666079,462.811781 C60.6245585,463.915315 59.9995246,465.452399 60.0000003,467.358946 C60.0000003,467.62694 60.212626,467.843957 60.475673,467.843957 C60.73872,467.843957 60.9499187,467.62694 60.9513457,467.358946 C60.9660915,464.903787 62.2294782,462.377746 64.5869121,461.061564 C64.8171377,460.932907 64.7714731,460.564415 64.5859608,460.375071 C64.3999728,460.186213 64.0817477,460.250298 63.8572302,460.390122 C63.3220984,460.724143 62.2532619,461.493171 61.3666079,462.811781 Z" id="Fill-1-Copy-10"></path>
        </g>
    </g>
</svg>