<?xml version="1.0" encoding="UTF-8"?>
<svg width="16px" height="12px" viewBox="0 0 16 12" version="1.1" xmlns="http://www.w3.org/2000/svg" xmlns:xlink="http://www.w3.org/1999/xlink">
    <!-- Generator: Sketch 45.1 (43504) - http://www.bohemiancoding.com/sketch -->
    <title>群主@1x</title>
    <desc>Created with Sketch.</desc>
    <defs></defs>
    <g id="Welcome" stroke="none" stroke-width="1" fill="none" fill-rule="evenodd">
        <g id="Artboard-2" transform="translate(-644.000000, -44.000000)">
            <g id="Group-13-Copy" transform="translate(644.000000, 44.000000)">
                <g id="Group-9-Copy">
                    <path d="M2.72667164,11.4251953 C5.50667164,11.4219953 9.3179607,11.4203953 12.0979607,11.4251953 C12.2659607,11.4251953 12.5656,10.1025465 12.6112,10.0001465 C12.8064,9.55694648 12.656,9.10517422 12.86,8.66357422 C13.0552,8.24197422 13.0008,7.80802492 13.1952,7.38722492 C13.0752,7.33282492 13.1716795,7.15717578 13.0596795,7.10517578 C12.9916795,7.14357578 12.7224,7.31042492 12.6512,7.34962492 C12.1096,7.65602492 11.5232,7.90722492 10.8336,8.03922492 C10.1664,8.16562492 9.5784,8.08562492 9.1096,7.73282492 C8.8744,7.55682492 8.6464,7.36882492 8.4704,7.16482492 C8.2048,6.85762492 7.5976,6 7.5976,6 L6.4744,7.38802492 C6.2472,7.63202492 5.9328,7.83282492 5.5464,7.96562492 C4.8448,8.20722492 4.1536,8.10162492 3.512,7.87202492 C3.0616,7.71122492 2.6648,7.48322492 2.2272,7.27682492 C2.1768,7.29522492 2.092,7.32642492 2,7.36002492 C2.0136,7.39682492 2.024,7.42962492 2.0376,7.46162492 L2.72667164,11.4251953 Z" id="Fill-5" fill="#D0F3F5"></path>
                    <path d="M7.53712,10.6623759 C9.08512,10.6623759 10.63312,10.6639759 12.18192,10.6671759 C12.34032,10.1407759 13.33072,5.36637591 13.33072,5.36637591 C12.66672,5.89277591 12.03472,6.22957591 11.35952,6.42077591 C10.42992,6.68397591 9.63472,6.46717591 9.03632,5.79757591 C8.69472,5.41837591 8.46112,5.10877591 8.27792,4.79517591 C8.06512,4.42957591 7.87792,4.04957591 7.69072,3.66797591 L7.64512,3.57677591 L6.75312,5.15837591 C6.44832,5.64557591 6.03712,6.02557591 5.55552,6.27197591 C4.76112,6.67677591 3.89872,6.63197591 2.92352,6.11437591 C2.60112,5.94317591 2.30352,5.73037591 2.01712,5.51837591 C2.01712,5.51837591 2.76432,9.66717591 3.05152,10.6655759 L7.53712,10.6623759 Z M12.25072,11.4671759 L12.24512,11.4671759 C10.67632,11.4639759 9.10672,11.4623759 7.53712,11.4623759 L2.97792,11.4663759 C2.62512,11.4663759 2.39952,11.2959759 2.30352,10.9591759 C2.01072,9.93837591 0.98592,4.77037591 0.98592,4.77037591 L1.48992,4.42797591 L1.70832,4.30877591 L1.91232,4.45117591 C2.06672,4.55917591 2.21712,4.67037591 2.36592,4.78157591 C2.68272,5.01677591 2.98112,5.23917591 3.29872,5.40717591 C4.03952,5.80157591 4.62672,5.84797591 5.19072,5.55997591 C5.54432,5.37917591 5.84672,5.09837591 6.06592,4.74957591 L7.26672,2.62077591 L8.06192,2.62077591 L8.40912,3.31517591 C8.58752,3.67917591 8.76592,4.04317591 8.96912,4.39197591 C9.12352,4.65677591 9.32832,4.92557591 9.63152,5.26397591 C10.02832,5.70797591 10.51392,5.82797591 11.14192,5.65117591 C11.77072,5.47277591 12.36592,5.13597591 13.01472,4.59277591 L13.46592,4.21277591 L14.34512,4.79757591 C14.34512,4.79757591 13.08912,10.4263759 12.93472,10.9479759 C12.82912,11.2975759 12.60512,11.4671759 12.25072,11.4671759 L12.25072,11.4671759 Z" id="Fill-3" fill="#2DD0CF"></path>
                    <g id="Group-15" transform="translate(0.000000, 2.483096)" fill="#2DD0CF">
                        <path d="M1.14216,1.15232 C0.95976,1.15392 0.80136,1.31552 0.79976,1.49792 C0.79896,1.59152 0.83416,1.67872 0.89896,1.74432 C0.96536,1.81072 1.05416,1.84752 1.15016,1.84832 L1.15096,2.24832 L1.15096,1.84832 C1.34136,1.84832 1.49656,1.68992 1.49656,1.49632 C1.49736,1.41152 1.46056,1.32752 1.39416,1.26112 C1.32536,1.19152 1.23336,1.15232 1.14216,1.15232 M1.15096,2.64832 L1.14456,2.64832 C0.83576,2.64592 0.54696,2.52512 0.33176,2.30752 C0.11496,2.08992 -0.00264,1.80032 -0.00024,1.49152 C0.00456,0.86912 0.51176,0.35792 1.13256,0.35232 C1.44456,0.35232 1.74216,0.47792 1.96056,0.69632 C2.17816,0.91472 2.29736,1.19952 2.29656,1.49872 C2.29496,2.13232 1.78136,2.64832 1.15096,2.64832" id="Fill-13"></path>
                    </g>
                    <path d="M14.21096,3.68701591 C14.02616,3.68701591 13.85976,3.85501591 13.85736,4.03901591 C13.85576,4.12621591 13.89096,4.21021591 13.95576,4.27581591 C14.09176,4.41421591 14.32776,4.41181591 14.45576,4.28301591 C14.51976,4.21821591 14.55576,4.12941591 14.55496,4.03341591 C14.55416,3.85261591 14.39336,3.69021591 14.21096,3.68701591 M14.21016,5.18301591 L14.20936,5.18301591 C13.89816,5.18301591 13.60616,5.06061591 13.38616,4.83741591 C13.17016,4.61981591 13.05336,4.33181591 13.05736,4.02941591 C13.06456,3.41021591 13.59176,2.88701591 14.20696,2.88701591 C14.84536,2.89821591 15.35256,3.41101591 15.35496,4.03021591 C15.35576,4.34141591 15.23736,4.63101591 15.02216,4.84781591 C14.80696,5.06381591 14.51896,5.18221591 14.21016,5.18301591" id="Fill-18" fill="#2DD0CF"></path>
                    <path d="M7.6324,1.72605591 C7.5372,1.72605591 7.4484,1.76365591 7.382,1.83165591 C7.318,1.89645591 7.2844,1.98045591 7.286,2.06845591 C7.2892,2.25805591 7.4468,2.40685591 7.6436,2.40685591 L7.6436,2.80685591 L7.6484,2.40685591 C7.8372,2.40445591 7.9812,2.25805591 7.9812,2.06525591 C7.9812,1.86605591 7.838,1.72605591 7.6324,1.72605591 L7.6324,1.72605591 Z M7.6436,3.20685591 C7.0068,3.20685591 6.4988,2.71325591 6.486,2.08365591 C6.4804,1.77885591 6.5956,1.49085591 6.8108,1.27165591 C7.2476,0.825255912 8.0212,0.831655912 8.4484,1.25325591 C8.6628,1.46525591 8.7812,1.75405591 8.7812,2.06605591 C8.7804,2.69805591 8.2868,3.19885591 7.658,3.20685591 L7.6436,3.20685591 Z" id="Fill-22" fill="#2DD0CF"></path>
                </g>
            </g>
        </g>
    </g>
</svg>