<?xml version="1.0" encoding="UTF-8"?>
<svg width="22px" height="22px" viewBox="0 0 22 22" version="1.1" xmlns="http://www.w3.org/2000/svg" xmlns:xlink="http://www.w3.org/1999/xlink">
    <!-- Generator: Sketch 45.1 (43504) - http://www.bohemiancoding.com/sketch -->
    <title>已选框 copy@1x</title>
    <desc>Created with Sketch.</desc>
    <defs></defs>
    <g id="Welcome" stroke="none" stroke-width="1" fill="none" fill-rule="evenodd">
        <g id="Artboard-2" transform="translate(-224.000000, -433.000000)">
            <circle id="Oval-Copy-4" stroke="#CDCFD9" fill="#C5C7D3" cx="235" cy="444" r="10"></circle>
            <path d="M240.214286,440 C239.997429,440 239.801,440.09269 239.658524,440.242207 L234.190476,446.002207 L231.341476,443.000828 C231.199,442.85131 231.002571,442.758621 230.785714,442.758621 C230.352,442.758621 230,443.129379 230,443.586207 C230,443.814621 230.088,444.021517 230.229952,444.171586 L233.634714,447.757793 C233.77719,447.90731 233.973619,448 234.190476,448 C234.407333,448 234.603762,447.90731 234.746238,447.757793 L240.770048,441.412966 C240.912,441.262897 241,441.056 241,440.827586 C241,440.370759 240.648,440 240.214286,440" id="Page-1-Copy-21" fill="#FFFFFF"></path>
        </g>
    </g>
</svg>