<?xml version="1.0" encoding="UTF-8"?>
<svg width="24px" height="24px" viewBox="0 0 24 24" version="1.1" xmlns="http://www.w3.org/2000/svg" xmlns:xlink="http://www.w3.org/1999/xlink">
    <!-- Generator: Sketch 45.1 (43504) - http://www.bohemiancoding.com/sketch -->
    <title>图片 点选@1x</title>
    <desc>Created with Sketch.</desc>
    <defs></defs>
    <g id="Welcome" stroke="none" stroke-width="1" fill="none" fill-rule="evenodd">
        <g id="Artboard-2" transform="translate(-111.000000, -308.000000)" fill="#28C7C6">
            <path d="M116.5,317.5 C115.395431,317.5 114.5,316.604569 114.5,315.5 C114.5,314.395431 115.395431,313.5 116.5,313.5 C117.604569,313.5 118.5,314.395431 118.5,315.5 C118.5,316.604569 117.604569,317.5 116.5,317.5 Z M116.5,316.5 C117.052285,316.5 117.5,316.052285 117.5,315.5 C117.5,314.947715 117.052285,314.5 116.5,314.5 C115.947715,314.5 115.5,314.947715 115.5,315.5 C115.5,316.052285 115.947715,316.5 116.5,316.5 Z" id="Oval-6" fill-rule="nonzero"></path>
            <path d="M112,311.990795 L112,328.009205 C112,328.550834 112.451278,329 113.004947,329 L132.995053,329 C133.552007,329 134,328.555074 134,328.009205 L134,311.990795 C134,311.449166 133.548722,311 132.995053,311 L113.004947,311 C112.447993,311 112,311.444926 112,311.990795 Z M111,311.990795 C111,310.891309 111.897026,310 113.004947,310 L132.995053,310 C134.102355,310 135,310.898212 135,311.990795 L135,328.009205 C135,329.108691 134.102974,330 132.995053,330 L113.004947,330 C111.897645,330 111,329.101788 111,328.009205 L111,311.990795 Z" id="Rectangle-5" fill-rule="nonzero"></path>
            <polygon id="Fill-5" points="112 328.339259 117.745778 322.461333 124.638519 329.420741 126.051259 329.420741 121.449185 324.774222 127.735704 318.426667 134.252178 325.265037 134.252178 323.838667 127.735704 317 120.742815 324.061037 117.745778 321.035259 112 326.889185"></polygon>
        </g>
    </g>
</svg>