<?xml version="1.0" encoding="UTF-8"?>
<svg width="24px" height="24px" viewBox="0 0 24 24" version="1.1" xmlns="http://www.w3.org/2000/svg" xmlns:xlink="http://www.w3.org/1999/xlink">
    <!-- Generator: Sketch 45.1 (43504) - http://www.bohemiancoding.com/sketch -->
    <title>图片 常态@1x</title>
    <desc>Created with Sketch.</desc>
    <defs></defs>
    <g id="Welcome" stroke="none" stroke-width="1" fill="none" fill-rule="evenodd">
        <g id="Artboard-2" transform="translate(-111.000000, -264.000000)" fill="#808080">
            <g id="Group-12-Copy" transform="translate(111.000000, 266.000000)">
                <path d="M5.5,7.5 C4.3954305,7.5 3.5,6.6045695 3.5,5.5 C3.5,4.3954305 4.3954305,3.5 5.5,3.5 C6.6045695,3.5 7.5,4.3954305 7.5,5.5 C7.5,6.6045695 6.6045695,7.5 5.5,7.5 Z M5.5,6.5 C6.05228475,6.5 6.5,6.05228475 6.5,5.5 C6.5,4.94771525 6.05228475,4.5 5.5,4.5 C4.94771525,4.5 4.5,4.94771525 4.5,5.5 C4.5,6.05228475 4.94771525,6.5 5.5,6.5 Z" id="Oval-6" fill-rule="nonzero"></path>
                <path d="M1,1.99079514 L1,18.0092049 C1,18.5508341 1.45127785,19 2.00494659,19 L21.9950534,19 C22.5520073,19 23,18.5550745 23,18.0092049 L23,1.99079514 C23,1.44916585 22.5487222,1 21.9950534,1 L2.00494659,1 C1.4479927,1 1,1.44492552 1,1.99079514 Z M0,1.99079514 C0,0.891309342 0.897026226,0 2.00494659,0 L21.9950534,0 C23.1023548,0 24,0.898212381 24,1.99079514 L24,18.0092049 C24,19.1086907 23.1029738,20 21.9950534,20 L2.00494659,20 C0.897645164,20 0,19.1017876 0,18.0092049 L0,1.99079514 Z" id="Rectangle-5" fill-rule="nonzero"></path>
                <polygon id="Fill-5" points="1 18.3392593 6.74577778 12.4613333 13.6385185 19.4207407 15.0512593 19.4207407 10.4491852 14.7742222 16.7357037 8.42666667 23.2521778 15.265037 23.2521778 13.8386667 16.7357037 7 9.74281481 14.061037 6.74577778 11.0352593 1 16.8891852"></polygon>
            </g>
        </g>
    </g>
</svg>