<?xml version="1.0" encoding="UTF-8"?>
<svg width="13px" height="14px" viewBox="0 0 13 14" version="1.1" xmlns="http://www.w3.org/2000/svg" xmlns:xlink="http://www.w3.org/1999/xlink">
    <!-- Generator: Sketch 45.1 (43504) - http://www.bohemiancoding.com/sketch -->
    <title>编辑 icon 常态@1x</title>
    <desc>Created with Sketch.</desc>
    <defs></defs>
    <g id="Welcome" stroke="none" stroke-width="1" fill="none" fill-rule="evenodd">
        <g id="Artboard-2" transform="translate(-354.000000, -195.000000)" fill="#808080">
            <g id="Group-17-Copy-5" transform="translate(354.000000, 196.000000)">
                <path d="M10.2384848,0.816 L11.072269,1.6498705 L10.4708014,2.2512518 L9.6370172,1.41738129 L10.2384848,0.816 Z M4.93612512,7.78610072 L3.80976541,8.07858993 L4.10216828,6.95231655 L9.15900282,1.89539568 L9.99287332,2.72935252 L4.93612512,7.78610072 Z M3.55906037,6.53930935 C3.51649922,6.58195683 3.4860244,6.63505036 3.47091649,6.69332374 L3.01085893,8.46526619 C2.98072944,8.58129496 3.01431217,8.70457554 3.09900282,8.78935252 C3.16323303,8.8534964 3.24947764,8.8883741 3.33796685,8.8883741 C3.36628339,8.8883741 3.39485893,8.88483453 3.42291649,8.87758273 L5.19494526,8.41735252 C5.25321864,8.4022446 5.30648483,8.37176978 5.34895965,8.32920863 L10.7095927,2.96866187 C10.7099381,2.96831655 11.7892474,1.88892086 11.7892474,1.88892086 C11.9212474,1.75692086 11.9212474,1.54290647 11.7892474,1.41099281 L10.4775352,0.0990215827 C10.4139956,0.0355683453 10.3281827,0 10.2384848,0 C10.148787,0 10.0628014,0.0355683453 9.99943447,0.0990215827 L8.92029778,1.17815827 C8.92003879,1.17841727 3.55906037,6.53930935 3.55906037,6.53930935 Z" id="Fill-1"></path>
                <path d="M11,4 L11,11 L1,11 L1,2 L5.93289209,2 L5.93289209,1 L1.00643427,1 C0.450595971,1 0,1.44483697 0,1.9955775 L0,11.0044225 C0,11.5542648 0.45411497,12 0.998852852,12 L10.957809,12 C11.5094602,12 11.9566619,11.5469637 11.9566619,11.0029699 L11.9566619,4 L11,4 Z" id="Fill-3"></path>
            </g>
        </g>
    </g>
</svg>