<?xml version="1.0" encoding="UTF-8"?>
<svg width="12px" height="8px" viewBox="0 0 12 8" version="1.1" xmlns="http://www.w3.org/2000/svg" xmlns:xlink="http://www.w3.org/1999/xlink">
    <!-- Generator: Sketch 45.1 (43504) - http://www.bohemiancoding.com/sketch -->
    <title>Fill 1</title>
    <desc>Created with Sketch.</desc>
    <defs></defs>
    <g id="Welcome" stroke="none" stroke-width="1" fill="none" fill-rule="evenodd">
        <g id="web-jchat-用户资料" transform="translate(-1119.000000, -166.000000)" fill="#808080">
            <path d="M1130.81199,166.169205 C1130.56126,165.943598 1130.15472,165.943598 1129.90406,166.169205 L1123.39493,172.037103 L1120.09586,169.063258 C1119.8452,168.837032 1119.4386,168.837032 1119.188,169.063258 C1118.93733,169.288864 1118.93733,169.654984 1119.188,169.881761 L1123.27356,173.564507 C1123.31721,173.603818 1123.35232,173.624058 1123.38103,173.628877 C1123.38268,173.629428 1123.38426,173.629428 1123.38585,173.629428 L1123.38743,173.629428 C1123.38908,173.62991 1123.39067,173.630461 1123.3928,173.630461 L1123.39755,173.630461 C1123.3992,173.630461 1123.40127,173.62991 1123.40292,173.629428 L1123.4045,173.629428 C1123.40554,173.629428 1123.40767,173.629428 1123.40877,173.628877 C1123.43803,173.624058 1123.47266,173.603887 1123.51624,173.564507 L1130.81206,166.987708 C1131.06266,166.762032 1131.06266,166.395362 1130.81199,166.169205" id="Fill-1"></path>
        </g>
    </g>
</svg>