<?xml version="1.0" encoding="UTF-8"?>
<svg width="16px" height="16px" viewBox="0 0 16 16" version="1.1" xmlns="http://www.w3.org/2000/svg" xmlns:xlink="http://www.w3.org/1999/xlink">
    <!-- Generator: Sketch 46.2 (44496) - http://www.bohemiancoding.com/sketch -->
    <title>禁言@1x</title>
    <desc>Created with Sketch.</desc>
    <defs></defs>
    <g id="Welcome" stroke="none" stroke-width="1" fill="none" fill-rule="evenodd">
        <g id="Artboard-2" transform="translate(-141.000000, -70.000000)" fill="#D9D9D9">
            <path d="M149.000166,71 C144.586287,71 141,73.7034117 141,77.0690625 C141,78.7518879 141.910351,80.2690294 143.344899,81.372375 L143.482776,83.965717 L146.048311,82.696522 C146.627625,82.8620404 147.234581,83.0000828 147.869013,83.0553659 C147.676018,82.5035276 147.620735,82.0897317 147.620735,81.4551342 C147.620735,78.7240809 149.855233,76.2138291 152.586287,76.2138291 C154.32423,76.2138291 155.841371,77.2069394 156.724246,78.6138456 C156.917241,78.1172905 157,77.5656177 157,77.041421 C157,73.7034117 153.413879,71 149.000166,71 M154.986303,82.8620404 L150.931103,79.2759191 C151.951689,78.5036104 153.413879,78.5310864 154.406989,79.4139615 C155.400099,80.2965055 155.620901,81.7586949 154.986303,82.8620404 M150.765585,83.551921 C149.772474,82.669046 149.551673,81.2068566 150.213746,80.1035111 L154.268947,83.6896323 C153.220884,84.4622722 151.758695,84.4344651 150.765585,83.551921 M155.151822,78.5863696 C153.551921,77.1792978 151.096621,77.3173401 149.689715,78.9174063 C148.282809,80.517307 148.420851,82.9726067 150.020752,84.379513 C151.620653,85.7864192 154.048476,85.6483769 155.482859,84.0484762 C156.889765,82.4482445 156.751722,79.9932758 155.151822,78.5863696" id="Fill-1"></path>
        </g>
    </g>
</svg>