<?xml version="1.0" encoding="UTF-8"?>
<svg width="20px" height="20px" viewBox="0 0 20 20" version="1.1" xmlns="http://www.w3.org/2000/svg" xmlns:xlink="http://www.w3.org/1999/xlink">
    <!-- Generator: Sketch 45.1 (43504) - http://www.bohemiancoding.com/sketch -->
    <title>联系人@1x</title>
    <desc>Created with Sketch.</desc>
    <defs></defs>
    <g id="Welcome" stroke="none" stroke-width="1" fill="none" fill-rule="evenodd">
        <g id="Artboard-2" transform="translate(-29.000000, -409.000000)" fill="#808080">
            <path d="M39.0000001,419.209352 C36.7737806,419.209352 34.9625948,417.362134 34.9625948,415.091029 C34.9625948,412.819437 36.7737806,410.97222 39.0000001,410.97222 C41.2262196,410.97222 43.0374055,412.819437 43.0374055,415.091029 C43.0374055,417.362134 41.2262196,419.209352 39.0000001,419.209352 M41.3505868,419.579767 C42.9201859,418.720811 43.9904104,417.031579 43.9904104,415.091029 C43.9904104,412.283258 41.7518019,410 39.0000001,410 C36.2481984,410 34.0095898,412.283258 34.0095898,415.091029 C34.0095898,417.877897 36.2162727,420.146572 38.9413903,420.179141 C38.9728395,420.182544 39.0028592,420.192752 39.0352613,420.189835 C42.8854012,420.19178 46.0469951,423.416147 46.0469951,427.380859 C46.0469951,427.649191 46.2599917,427.866483 46.5234975,427.866483 C46.7870034,427.866483 47,427.649191 47,427.380859 C47,423.714618 44.6179642,420.606431 41.3505868,419.579767 M34.8639588,420.403238 C34.3278935,420.737681 33.2571924,421.507679 32.3689919,422.827954 C31.625648,423.932881 30.9995238,425.471905 31.0000003,427.380859 C31.0000003,427.649191 31.2129969,427.866483 31.4765027,427.866483 C31.7400086,427.866483 31.9515757,427.649191 31.9530052,427.380859 C31.9677768,424.922601 33.2333673,422.393371 35.5949135,421.075528 C35.8255407,420.946708 35.7797965,420.577751 35.5939605,420.388168 C35.4076481,420.199071 35.0888679,420.263238 34.8639588,420.403238" id="Fill-1-Copy-3"></path>
        </g>
    </g>
</svg>