<?xml version="1.0" encoding="UTF-8"?>
<svg width="20px" height="20px" viewBox="0 0 20 20" version="1.1" xmlns="http://www.w3.org/2000/svg" xmlns:xlink="http://www.w3.org/1999/xlink">
    <!-- Generator: Sketch 45.1 (43504) - http://www.bohemiancoding.com/sketch -->
    <title>联系人 pre@1x</title>
    <desc>Created with Sketch.</desc>
    <defs></defs>
    <g id="Welcome" stroke="none" stroke-width="1" fill="none" fill-rule="evenodd">
        <g id="Artboard-2" transform="translate(-60.000000, -409.000000)" fill="#28C7C6">
            <path d="M70.0000001,419.209352 C67.7737806,419.209352 65.9625948,417.362134 65.9625948,415.091029 C65.9625948,412.819437 67.7737806,410.97222 70.0000001,410.97222 C72.2262196,410.97222 74.0374055,412.819437 74.0374055,415.091029 C74.0374055,417.362134 72.2262196,419.209352 70.0000001,419.209352 M72.3505868,419.579767 C73.9201859,418.720811 74.9904104,417.031579 74.9904104,415.091029 C74.9904104,412.283258 72.7518019,410 70.0000001,410 C67.2481984,410 65.0095898,412.283258 65.0095898,415.091029 C65.0095898,417.877897 67.2162727,420.146572 69.9413903,420.179141 C69.9728395,420.182544 70.0028592,420.192752 70.0352613,420.189835 C73.8854012,420.19178 77.0469951,423.416147 77.0469951,427.380859 C77.0469951,427.649191 77.2599917,427.866483 77.5234975,427.866483 C77.7870034,427.866483 78,427.649191 78,427.380859 C78,423.714618 75.6179642,420.606431 72.3505868,419.579767 M65.8639588,420.403238 C65.3278935,420.737681 64.2571924,421.507679 63.3689919,422.827954 C62.625648,423.932881 61.9995238,425.471905 62.0000003,427.380859 C62.0000003,427.649191 62.2129969,427.866483 62.4765027,427.866483 C62.7400086,427.866483 62.9515757,427.649191 62.9530052,427.380859 C62.9677768,424.922601 64.2333673,422.393371 66.5949135,421.075528 C66.8255407,420.946708 66.7797965,420.577751 66.5939605,420.388168 C66.4076481,420.199071 66.0888679,420.263238 65.8639588,420.403238" id="Fill-1-Copy-4"></path>
        </g>
    </g>
</svg>