<?xml version="1.0" encoding="UTF-8"?>
<svg width="187px" height="56px" viewBox="0 0 187 56" version="1.1" xmlns="http://www.w3.org/2000/svg" xmlns:xlink="http://www.w3.org/1999/xlink">
    <!-- Generator: Sketch 45.1 (43504) - http://www.bohemiancoding.com/sketch -->
    <title>极光 logo copy 3@1x</title>
    <desc>Created with Sketch.</desc>
    <defs></defs>
    <g id="Welcome" stroke="none" stroke-width="1" fill="none" fill-rule="evenodd">
        <g id="Artboard-2" transform="translate(-63.000000, -666.000000)" fill="#2DD0CF">
            <text id="JCHAT-Copy-3" stroke="#2DD0CF" font-family="Helvetica" font-size="34" font-weight="normal" letter-spacing="1">
                <tspan x="135" y="707">JCHA</tspan>
                <tspan x="227.785156" y="707">T</tspan>
            </text>
            <g id="Group-13" transform="translate(64.000000, 666.000000)">
                <g id="Group-12">
                    <path d="M27.7954016,51.5252913 C24.775811,51.5252913 21.8964409,50.9595591 18.9941417,49.7941417 C18.6180157,49.511937 18.1783937,49.3628976 17.7228976,49.3628976 C17.4085039,49.3628976 17.0945512,49.4378583 16.8418898,49.5688189 C16.6663937,49.6314331 16.5001575,49.7156535 16.3780157,49.8047244 C14.647748,50.6526614 12.8015118,51.0645039 10.7352441,51.0645039 C9.7056378,51.0645039 8.69499213,50.9560315 7.72359055,50.7408504 L10.9565984,47.4972598 C11.3803465,47.0726299 11.6149291,46.5249764 11.6149291,45.9504252 C11.6149291,45.4905197 11.4632441,45.0456063 11.1867717,44.6769764 C11.0452283,44.4529764 10.8635591,44.2532283 10.6713071,44.104189 C6.55905512,39.7326614 4.2943622,34.0228661 4.2943622,28.0251339 C4.2943622,27.0259528 4.40812598,26.1105512 4.52056693,25.2070551 L4.52541732,25.1444409 C4.52541732,24.7087874 4.59817323,24.136 4.7472126,23.3908031 C6.88755906,12.4593386 16.5804094,4.52674016 27.7954016,4.52674016 C34.079748,4.52674016 39.9831181,6.96825197 44.4185827,11.4037165 C48.8536063,15.8378583 51.2964409,21.7407874 51.2964409,28.0251339 C51.2964409,34.3094803 48.8536063,40.2132913 44.4185827,44.6474331 C39.9826772,49.0837795 34.0793071,51.5252913 27.7954016,51.5252913 M47.7428661,8.1936378 C42.4590236,2.91023622 35.4568189,0 28.0255748,0 C14.6988976,0 3.15848819,9.42034646 0.581165354,22.4264567 C0.471811024,23.1937008 0.360251969,23.8652598 0.252220472,24.5165354 L0.234141732,24.6294173 C0.120818898,25.6405039 0,26.8204724 0,28.0251339 C0,31.680126 0.685669291,35.2213543 2.0376063,38.5491654 C3.1055748,41.1785197 4.57833071,43.639874 6.41707087,45.8697323 C5.13965354,47.2692913 3.61883465,48.3716535 1.87754331,49.1543307 C0.74784252,49.7191811 0.283086614,50.8845984 0.721826772,52.0531024 L0.741669291,52.0998425 C1.04371654,52.7026142 1.512,53.1157795 2.0543622,53.280252 C4.71546457,54.7150866 7.67729134,55.4748346 10.6205984,55.4748346 C13.1084094,55.4748346 15.4030866,55.0122835 17.631622,54.0624882 C20.8350866,55.3222677 24.1606929,55.9365039 27.7954016,55.9365039 C35.2195906,55.9365039 42.2314961,53.0214173 47.5400315,47.7291969 C52.8406299,42.4427087 55.8227402,35.4056693 55.9365039,27.9104882 C55.9365039,20.480126 53.0267087,13.4783622 47.7428661,8.1936378" id="Fill-3-Copy-7"></path>
                    <path d="M35.2511097,12.1333333 C33.8325867,12.1333333 32.6664944,13.2873641 32.6664944,14.7050256 L32.6664944,31.2017641 L32.6664944,32.2670564 C32.5510482,35.5529641 30.0510359,37.5487179 26.7780513,37.5487179 C23.5907897,37.5487179 21.0113436,35.3371487 21.0113436,32.2670564 L21.0104821,31.8285333 C21.0044513,30.416041 19.8631713,29.3641026 18.4511097,29.3641026 C17.0399097,29.3641026 15.8739897,30.416041 15.8666667,31.8306872 L15.8666667,32.2446564 C15.8666667,38.261641 20.7614974,43.1573333 26.7780513,43.1573333 C29.6926359,43.1573333 32.4362051,42.0274256 34.5030359,39.9773949 C36.5758974,37.9204718 37.8361559,35.2940718 37.8357251,32.3794872 L37.8357251,14.7050256 C37.8357251,13.2865026 36.5629744,12.1333333 35.1444513,12.1333333 L35.2511097,12.1333333 Z" id="Fill-1-Copy-6"></path>
                </g>
            </g>
        </g>
    </g>
</svg>