<?xml version="1.0" encoding="UTF-8"?>
<svg width="21px" height="21px" viewBox="0 0 21 21" version="1.1" xmlns="http://www.w3.org/2000/svg" xmlns:xlink="http://www.w3.org/1999/xlink">
    <!-- Generator: Sketch 45.1 (43504) - http://www.bohemiancoding.com/sketch -->
    <title>菜单 常态@1x</title>
    <desc>Created with Sketch.</desc>
    <defs></defs>
    <g id="Welcome" stroke="none" stroke-width="1" fill="none" fill-rule="evenodd">
        <g id="Artboard-2" transform="translate(-32.000000, -171.000000)" fill="#808080">
            <path d="M32.5,173 C32.224,173 32,173.224 32,173.5 C32,173.776 32.224,174 32.5,174 L52.5,174 C52.776,174 53,173.776 53,173.5 C53,173.224 52.776,173 52.5,173 L32.5,173 Z" id="Page-1-Copy-6"></path>
            <path d="M32.5,181 C32.224,181 32,181.224 32,181.5 C32,181.776 32.224,182 32.5,182 L52.5,182 C52.776,182 53,181.776 53,181.5 C53,181.224 52.776,181 52.5,181 L32.5,181 Z" id="Page-1-Copy-9"></path>
            <path d="M32.5,189 C32.224,189 32,189.224 32,189.5 C32,189.776 32.224,190 32.5,190 L52.5,190 C52.776,190 53,189.776 53,189.5 C53,189.224 52.776,189 52.5,189 L32.5,189 Z" id="Page-1-Copy-10"></path>
        </g>
    </g>
</svg>