<?xml version="1.0" encoding="UTF-8"?>
<svg width="21px" height="21px" viewBox="0 0 21 21" version="1.1" xmlns="http://www.w3.org/2000/svg" xmlns:xlink="http://www.w3.org/1999/xlink">
    <!-- Generator: Sketch 45.1 (43504) - http://www.bohemiancoding.com/sketch -->
    <title>菜单 点选@1x</title>
    <desc>Created with Sketch.</desc>
    <defs></defs>
    <g id="Welcome" stroke="none" stroke-width="1" fill="none" fill-rule="evenodd" fill-opacity="0.6">
        <g id="Artboard-2" transform="translate(-69.000000, -172.000000)" fill="#808080">
            <path d="M69.5,174 C69.224,174 69,174.224 69,174.5 C69,174.776 69.224,175 69.5,175 L89.5,175 C89.776,175 90,174.776 90,174.5 C90,174.224 89.776,174 89.5,174 L69.5,174 Z" id="Page-1-Copy-11"></path>
            <path d="M69.5,182 C69.224,182 69,182.224 69,182.5 C69,182.776 69.224,183 69.5,183 L89.5,183 C89.776,183 90,182.776 90,182.5 C90,182.224 89.776,182 89.5,182 L69.5,182 Z" id="Page-1-Copy-12"></path>
            <path d="M69.5,190 C69.224,190 69,190.224 69,190.5 C69,190.776 69.224,191 69.5,191 L89.5,191 C89.776,191 90,190.776 90,190.5 C90,190.224 89.776,190 89.5,190 L69.5,190 Z" id="Page-1-Copy-13"></path>
        </g>
    </g>
</svg>