<?xml version="1.0" encoding="UTF-8"?>
<svg width="14px" height="14px" viewBox="0 0 14 14" version="1.1" xmlns="http://www.w3.org/2000/svg" xmlns:xlink="http://www.w3.org/1999/xlink">
    <!-- Generator: Sketch 45.1 (43504) - http://www.bohemiancoding.com/sketch -->
    <title>弹窗 关闭icon 常态@1x</title>
    <desc>Created with Sketch.</desc>
    <defs></defs>
    <g id="Welcome" stroke="none" stroke-width="1" fill="none" fill-rule="evenodd">
        <g id="Artboard-2" transform="translate(-329.000000, -171.000000)" fill="#999999">
            <g id="Group-19" transform="translate(323.000000, 165.000000)">
                <g id="Group-14">
                    <g id="Group-25-Copy-11" transform="translate(12.727922, 12.727922) rotate(45.000000) translate(-12.727922, -12.727922) translate(3.727922, 3.727922)">
                        <path d="M0.428571429,8.57142857 C0.192,8.57142857 0,8.76342857 0,9 C0,9.23657143 0.192,9.42857143 0.428571429,9.42857143 L17.5714286,9.42857143 C17.808,9.42857143 18,9.23657143 18,9 C18,8.76342857 17.808,8.57142857 17.5714286,8.57142857 L0.428571429,8.57142857 Z" id="Page-1-Copy-6"></path>
                        <path d="M0.428571429,8.57142857 C0.192,8.57142857 0,8.76342857 0,9 C0,9.23657143 0.192,9.42857143 0.428571429,9.42857143 L17.5714286,9.42857143 C17.808,9.42857143 18,9.23657143 18,9 C18,8.76342857 17.808,8.57142857 17.5714286,8.57142857 L0.428571429,8.57142857 Z" id="Page-1-Copy-7" transform="translate(9.000000, 9.000000) rotate(90.000000) translate(-9.000000, -9.000000) "></path>
                    </g>
                </g>
            </g>
        </g>
    </g>
</svg>