<?xml version="1.0" encoding="UTF-8"?>
<svg width="20px" height="20px" viewBox="0 0 20 20" version="1.1" xmlns="http://www.w3.org/2000/svg" xmlns:xlink="http://www.w3.org/1999/xlink">
    <!-- Generator: Sketch 46.2 (44496) - http://www.bohemiancoding.com/sketch -->
    <title>聊天文件 点选@1x</title>
    <desc>Created with Sketch.</desc>
    <defs></defs>
    <g id="Welcome" stroke="none" stroke-width="1" fill="none" fill-rule="evenodd">
        <g id="Artboard-2" transform="translate(-131.000000, -232.000000)" fill="#B3B3B3">
            <g id="Group-9" transform="translate(131.000000, 233.000000)">
                <path d="M2.31483333,4.44444444 C1.57405556,4.44444444 0.925944444,5.09255556 0.925944444,5.83333333 L0.925944444,16.4628889 C0.925944444,17.2037778 1.57405556,17.8517778 2.31483333,17.8517778 L17.6851667,17.8517778 C18.4259444,17.8517778 19.0740556,17.2037778 19.0740556,16.4628889 L19.0740556,5.83333333 C19.0740556,5.09255556 18.4259444,4.44444444 17.6851667,4.44444444 L2.31483333,4.44444444 Z M2.31483333,18.7777778 C1.0185,18.7777778 5.5555555e-05,17.7593333 5.5555555e-05,16.4628889 L5.55555553e-05,5.83333333 C5.55555553e-05,4.537 1.0185,3.51855556 2.31483333,3.51855556 L17.6851667,3.51855556 C18.9815,3.51855556 20.0000556,4.537 20.0000556,5.83333333 L20.0000556,16.4628889 C20.0000556,17.7593333 18.9815,18.7777778 17.6851667,18.7777778 L2.31483333,18.7777778 Z" id="Fill-1"></path>
                <path d="M14.7222222,14.5184444 L5.27777778,14.5184444 C5,14.5184444 4.81477778,14.3333333 4.81477778,14.0555556 C4.81477778,13.7777778 5,13.5926667 5.27777778,13.5926667 L13.7962222,13.5926667 L12.5926667,11.926 C12.4073333,11.7406667 12.5,11.4628889 12.6851111,11.2777778 C12.8704444,11.0926667 13.1482222,11.1851111 13.3333333,11.3704444 L15.0926667,13.7777778 C15.1851111,13.9628889 15.1851111,14.1482222 15.0926667,14.2406667 C15,14.426 14.9073333,14.5184444 14.7222222,14.5184444 L14.7222222,14.5184444 Z M0.925888889,6.574 L0,6.574 L0,1.20366667 C0,0.555555556 0.555555556,0 1.20366667,0 L8.05555556,0 C8.61111111,0 9.16666667,0.462888889 9.44444444,1.11111111 L10.3704444,3.51844444 L9.537,3.88888889 L8.61111111,1.48144444 C8.51855556,1.20366667 8.24077778,0.925888889 8.05555556,0.925888889 L1.20366667,0.925888889 C1.11111111,0.925888889 0.925888889,1.01844444 0.925888889,1.20366667 L0.925888889,6.574 Z" id="Fill-4"></path>
            </g>
        </g>
    </g>
</svg>