<?xml version="1.0" encoding="UTF-8"?>
<svg width="26px" height="27px" viewBox="0 0 26 27" version="1.1" xmlns="http://www.w3.org/2000/svg" xmlns:xlink="http://www.w3.org/1999/xlink">
    <!-- Generator: Sketch 45.1 (43504) - http://www.bohemiancoding.com/sketch -->
    <title>å³ hover@1x</title>
    <desc>Created with Sketch.</desc>
    <defs></defs>
    <g id="Welcome" stroke="none" stroke-width="1" fill="none" fill-rule="evenodd">
        <g id="Artboard-2" transform="translate(-482.000000, -622.000000)" fill="#2DD0CF">
            <path d="M502.459409,647.412808 C502.229597,647.412808 501.999785,647.327945 501.820148,647.157599 L490.289303,636.21522 C490.105949,636.041158 490.001264,635.799577 490.000025,635.546846 C489.998167,635.293496 490.100374,635.050676 490.281869,634.874755 L501.812715,623.675309 C502.180661,623.318513 502.768509,623.325946 503.126544,623.694512 C503.48396,624.062458 503.475288,624.650925 503.106722,625.00834 L492.270886,635.533218 L503.099289,645.809701 C503.471571,646.162781 503.487057,646.751248 503.133358,647.12353 C502.950623,647.315556 502.705326,647.412808 502.459409,647.412808" id="Page-1-Copy-20" transform="translate(496.694490, 635.412808) scale(-1, 1) translate(-496.694490, -635.412808) "></path>
        </g>
    </g>
</svg>