<?xml version="1.0" encoding="UTF-8"?>
<svg width="26px" height="26px" viewBox="0 0 26 26" version="1.1" xmlns="http://www.w3.org/2000/svg" xmlns:xlink="http://www.w3.org/1999/xlink">
    <!-- Generator: Sketch 45.1 (43504) - http://www.bohemiancoding.com/sketch -->
    <title>å³@1x</title>
    <desc>Created with Sketch.</desc>
    <defs></defs>
    <g id="Welcome" stroke="none" stroke-width="1" fill="none" fill-rule="evenodd" opacity="0.6">
        <g id="Artboard-2" transform="translate(-482.000000, -578.000000)" fill="#FFFFFF">
            <path d="M502.459409,604 C502.229597,604 501.999785,603.915137 501.820148,603.744791 L490.289303,592.802412 C490.105949,592.62835 490.001264,592.386769 490.000025,592.134038 C489.998167,591.880688 490.100374,591.637868 490.281869,591.461947 L501.812715,580.262501 C502.180661,579.905705 502.768509,579.913138 503.126544,580.281704 C503.48396,580.64965 503.475288,581.238117 503.106722,581.595533 L492.270886,592.12041 L503.099289,602.396893 C503.471571,602.749973 503.487057,603.33844 503.133358,603.710722 C502.950623,603.902748 502.705326,604 502.459409,604" id="Page-1-Copy-7" transform="translate(496.694490, 592.000000) scale(-1, 1) translate(-496.694490, -592.000000) "></path>
        </g>
    </g>
</svg>