<?xml version="1.0" encoding="UTF-8"?>
<svg width="50px" height="40px" viewBox="0 0 50 40" version="1.1" xmlns="http://www.w3.org/2000/svg" xmlns:xlink="http://www.w3.org/1999/xlink">
    <!-- Generator: Sketch 45.1 (43504) - http://www.bohemiancoding.com/sketch -->
    <title>气泡 copy@1x</title>
    <desc>Created with Sketch.</desc>
    <defs>
        <path d="M794,908.005322 C794,905.240959 796.234289,903 798.991973,903 L828.457287,903 C828.457287,903 833.231501,903 836.652722,903 C838.843025,903 838.696545,903 840.904064,903 C843.111584,903 842.455473,903 842.973333,903 C843.491192,903 844,903.174426 844,904 C844,904.797534 843.496899,904.794922 842.344677,905.529284 C841.192455,906.263647 840.455417,907.543944 839.628906,909.4104 C838.802395,911.276857 839,916 839,916 L839.053513,938.00056 C839.060229,940.761675 836.83086,943 834.070671,943 L798.995002,943 C796.236339,943 794,940.763716 794,937.994678 L794,908.005322 Z" id="path-1"></path>
    </defs>
    <g id="Welcome" stroke="none" stroke-width="1" fill="none" fill-rule="evenodd">
        <g id="Artboard-2" transform="translate(-794.000000, -903.000000)">
            <g id="Rectangle-11-Copy-17" transform="translate(819.000000, 923.000000) scale(-1, 1) translate(-819.000000, -923.000000) ">
                <use fill="#F2F6FB" fill-rule="evenodd" xlink:href="#path-1"></use>
                <path stroke="#E2E9F0" stroke-width="1" d="M794.5,908.005322 L794.5,937.994678 C794.5,940.486117 796.511028,942.5 798.995002,942.5 L834.070671,942.5 C836.553592,942.5 838.55956,940.486925 838.553515,938.001776 L838.500437,916.020901 C838.497732,915.956255 838.493756,915.837764 838.489805,915.673405 C838.464172,914.607051 838.479626,913.419695 838.566906,912.293574 C838.669953,910.964032 838.86062,909.910501 839.171726,909.20795 C840.152193,906.993825 840.921978,905.843115 842.075945,905.107641 C842.411609,904.893707 843.205548,904.454994 843.290305,904.397668 C843.469701,904.276334 843.5,904.222248 843.5,904 C843.5,903.59161 843.380227,903.5 842.973333,903.5 L798.991973,903.5 C796.510981,903.5 794.5,905.516552 794.5,908.005322 Z"></path>
            </g>
        </g>
    </g>
</svg>