<?xml version="1.0" encoding="UTF-8"?>
<svg width="50px" height="40px" viewBox="0 0 50 40" version="1.1" xmlns="http://www.w3.org/2000/svg" xmlns:xlink="http://www.w3.org/1999/xlink">
    <!-- Generator: Sketch 45.1 (43504) - http://www.bohemiancoding.com/sketch -->
    <title>气泡@1x</title>
    <desc>Created with Sketch.</desc>
    <defs>
        <path d="M795,855.005322 C795,852.240959 797.234289,850 799.991973,850 L829.457287,850 C829.457287,850 834.231501,850 837.652722,850 C839.843025,850 839.696545,850 841.904064,850 C844.111584,850 843.455473,850 843.973333,850 C844.491192,850 845,850.174426 845,851 C845,851.797534 844.496899,851.794922 843.344677,852.529284 C842.192455,853.263647 841.455417,854.543944 840.628906,856.4104 C839.802395,858.276857 840,863 840,863 L840.053513,885.00056 C840.060229,887.761675 837.83086,890 835.070671,890 L799.995002,890 C797.236339,890 795,887.763716 795,884.994678 L795,855.005322 Z" id="path-1"></path>
    </defs>
    <g id="Welcome" stroke="none" stroke-width="1" fill="none" fill-rule="evenodd">
        <g id="Artboard-2" transform="translate(-795.000000, -850.000000)">
            <g id="Rectangle-11-Copy-15">
                <use fill="#71E1DB" fill-rule="evenodd" xlink:href="#path-1"></use>
                <path stroke="#67D6D0" stroke-width="1" d="M795.5,855.005322 L795.5,884.994678 C795.5,887.486117 797.511028,889.5 799.995002,889.5 L835.070671,889.5 C837.553592,889.5 839.55956,887.486925 839.553515,885.001776 L839.500437,863.020901 C839.497732,862.956255 839.493756,862.837764 839.489805,862.673405 C839.464172,861.607051 839.479626,860.419695 839.566906,859.293574 C839.669953,857.964032 839.86062,856.910501 840.171726,856.20795 C841.152193,853.993825 841.921978,852.843115 843.075945,852.107641 C843.411609,851.893707 844.205548,851.454994 844.290305,851.397668 C844.469701,851.276334 844.5,851.222248 844.5,851 C844.5,850.59161 844.380227,850.5 843.973333,850.5 L799.991973,850.5 C797.510981,850.5 795.5,852.516552 795.5,855.005322 Z"></path>
            </g>
        </g>
    </g>
</svg>