<?xml version="1.0" encoding="UTF-8"?>
<svg width="50px" height="40px" viewBox="0 0 50 40" version="1.1" xmlns="http://www.w3.org/2000/svg" xmlns:xlink="http://www.w3.org/1999/xlink">
    <!-- Generator: Sketch 45.1 (43504) - http://www.bohemiancoding.com/sketch -->
    <title>气泡 copy 2@1x</title>
    <desc>Created with Sketch.</desc>
    <defs>
        <path d="M794,961.005322 C794,958.240959 796.234289,956 798.991973,956 L828.457287,956 C828.457287,956 833.231501,956 836.652722,956 C838.843025,956 838.696545,956 840.904064,956 C843.111584,956 842.455473,956 842.973333,956 C843.491192,956 844,956.174426 844,957 C844,957.797534 843.496899,957.794922 842.344677,958.529284 C841.192455,959.263647 840.455417,960.543944 839.628906,962.4104 C838.802395,964.276857 839,969 839,969 L839.053513,991.00056 C839.060229,993.761675 836.83086,996 834.070671,996 L798.995002,996 C796.236339,996 794,993.763716 794,990.994678 L794,961.005322 Z" id="path-1"></path>
    </defs>
    <g id="Welcome" stroke="none" stroke-width="1" fill="none" fill-rule="evenodd">
        <g id="Artboard-2" transform="translate(-794.000000, -956.000000)">
            <g id="Rectangle-11-Copy-18">
                <use fill="#F2F6FB" fill-rule="evenodd" xlink:href="#path-1"></use>
                <path stroke="#E2E9F0" stroke-width="1" d="M794.5,961.005322 L794.5,990.994678 C794.5,993.486117 796.511028,995.5 798.995002,995.5 L834.070671,995.5 C836.553592,995.5 838.55956,993.486925 838.553515,991.001776 L838.500437,969.020901 C838.497732,968.956255 838.493756,968.837764 838.489805,968.673405 C838.464172,967.607051 838.479626,966.419695 838.566906,965.293574 C838.669953,963.964032 838.86062,962.910501 839.171726,962.20795 C840.152193,959.993825 840.921978,958.843115 842.075945,958.107641 C842.411609,957.893707 843.205548,957.454994 843.290305,957.397668 C843.469701,957.276334 843.5,957.222248 843.5,957 C843.5,956.59161 843.380227,956.5 842.973333,956.5 L798.991973,956.5 C796.510981,956.5 794.5,958.516552 794.5,961.005322 Z"></path>
            </g>
        </g>
    </g>
</svg>