<?xml version="1.0" encoding="UTF-8"?>
<svg width="18px" height="18px" viewBox="0 0 18 18" version="1.1" xmlns="http://www.w3.org/2000/svg" xmlns:xlink="http://www.w3.org/1999/xlink">
    <!-- Generator: Sketch 45.1 (43504) - http://www.bohemiancoding.com/sketch -->
    <title>密码 icon @1x</title>
    <desc>Created with Sketch.</desc>
    <defs></defs>
    <g id="Welcome" stroke="none" stroke-width="1" fill="none" fill-rule="evenodd">
        <g id="Artboard-2" transform="translate(-586.000000, -497.000000)" fill="#808080">
            <path d="M594.8,507.7116 C595.3528,507.7116 595.802,508.1536 595.802,508.6968 C595.802,509.0528 595.6004,509.3824 595.2756,509.5568 C595.136,509.632 595.0492,509.7764 595.0492,509.9336 L595.0492,511.6544 L594.55,511.6544 L594.55,509.9336 C594.55,509.7764 594.4632,509.632 594.3236,509.5568 C593.9988,509.3824 593.7968,509.0528 593.7968,508.6968 C593.7968,508.1536 594.2472,507.7116 594.8,507.7116 L594.8,507.7116 Z M593.682,510.1668 L593.682,512.0832 C593.682,512.32 593.8764,512.5116 594.116,512.5116 L595.4832,512.5116 C595.7232,512.5116 595.9172,512.32 595.9172,512.0832 L595.9172,510.1668 C596.3872,509.8208 596.6704,509.2784 596.6704,508.6968 C596.6704,507.6812 595.8316,506.8544 594.8,506.8544 C593.7684,506.8544 592.9288,507.6812 592.9288,508.6968 C592.9288,509.2784 593.2116,509.8208 593.682,510.1668 L593.682,510.1668 Z M600.732,514.1424 L588.868,514.1424 L588.868,505.2224 L589.2848,505.2224 C589.2856,505.2224 589.286,505.2228 589.2868,505.2228 C589.2876,505.2228 589.288,505.2224 589.2888,505.2224 L600.732,505.2224 L600.732,514.1424 Z M589.7208,502.8148 C589.7428,500.0812 592.0212,497.8572 594.8,497.8572 C597.5708,497.8572 599.8488,500.0748 599.878,502.8012 C599.8784,502.8476 599.8788,503.794 599.8788,504.3656 L589.7208,504.3656 L589.7208,502.8148 Z M601.166,504.3656 L600.7468,504.3656 C600.7468,503.78 600.7464,502.8004 600.746,502.7916 C600.7116,499.598 598.0444,497 594.8,497 C591.546,497 588.8784,499.6052 588.8528,502.8112 L588.8528,504.3656 L588.4336,504.3656 C588.194,504.3656 588,504.5572 588,504.794 L588,514.5708 C588,514.8076 588.194,515 588.4336,515 L601.166,515 C601.4052,515 601.6,514.8076 601.6,514.5708 L601.6,504.794 C601.6,504.5572 601.4052,504.3656 601.166,504.3656 L601.166,504.3656 Z" id="Fill-1-Copy-4"></path>
        </g>
    </g>
</svg>