<?xml version="1.0" encoding="UTF-8"?>
<svg width="40px" height="40px" viewBox="0 0 40 40" version="1.1" xmlns="http://www.w3.org/2000/svg" xmlns:xlink="http://www.w3.org/1999/xlink">
    <!-- Generator: Sketch 46.2 (44496) - http://www.bohemiancoding.com/sketch -->
    <title>80px</title>
    <desc>Created with Sketch.</desc>
    <defs></defs>
    <g id="Welcome" stroke="none" stroke-width="1" fill="none" fill-rule="evenodd">
        <g id="Artboard-2" transform="translate(-779.000000, -310.000000)">
            <g id="Group-28-Copy" transform="translate(779.000000, 310.000000)">
                <polygon id="Fill-1-Copy" fill="#2DD0CF" points="0 40 40 40 40 0 0 0"></polygon>
                <g id="Group-4-Copy" transform="translate(11.600000, 11.200000)">
                    <path d="M11.8159852,4.15742399 C11.7795772,6.50999399 9.92801715,8.31806399 7.59495315,8.27846399 C5.34126515,8.24051399 3.56350515,6.33707399 3.60056915,4.00232399 C3.63533715,1.79693399 5.53019315,-0.0315960092 7.74878515,0.000413990783 C10.0178892,0.0337439908 11.8504252,1.90649399 11.8159852,4.15742399" id="Fill-2" fill="#FFFFFF"></path>
                    <path d="M10.255904,8.8 C9.54152,9.20227 8.712008,9.42766 7.817552,9.41248 C7.01756,9.39895 6.270048,9.17983 5.619624,8.80561 C2.36652,9.80683 0,12.85075 0,16.45171 C0,16.8091 0.025912,17.15989 0.071176,17.50474 L15.82436,17.50474 C15.868968,17.15989 15.894552,16.8091 15.894552,16.45171 C15.894552,12.84382 13.519176,9.79528 10.255904,8.8" id="Fill-4" fill="#ABECEC"></path>
                </g>
                <g id="Group-3-Copy" transform="translate(25.800000, 15.200000)">
                    <path d="M6.287768,3.18729447 C6.259768,4.99094247 4.84243466,6.37727847 3.05743466,6.34703847 C1.33243466,6.31780647 -0.0278986706,4.85855847 0.00043466275,3.06835047 C0.0267679961,1.37726247 1.47710133,-0.0248655263 3.174768,0.000334473716 C4.91143466,0.0255344737 6.313768,1.46126247 6.287768,3.18729447" id="Fill-6" fill="#FFFFFF"></path>
                    <path d="M3.091,7.269392 C2.47866667,7.258976 1.907,7.090976 1.409,6.804032 C1.33833333,6.825872 1.26966667,6.853424 1.2,6.877616 C2.53333333,8.329472 3.35166667,10.267856 3.35166667,12.402128 C3.35166667,12.76568 3.32533333,13.122848 3.28,13.473968 L9.21866667,13.473968 C9.25266667,13.209536 9.27266667,12.9404 9.27266667,12.66656 C9.27266667,9.900608 7.45433333,7.563056 4.957,6.8 C4.41033333,7.108112 3.77533333,7.281152 3.091,7.269392 Z" id="Fill-8" fill="#ABECEC"></path>
                </g>
                <g id="Group-5-Copy" transform="translate(4.000000, 15.200000)">
                    <path d="M9.087768,3.18729447 C9.059768,4.99094247 7.64243466,6.37727847 5.85743466,6.34703847 C4.13243466,6.31780647 2.77210133,4.85855847 2.80043466,3.06835047 C2.826768,1.37726247 4.27710133,-0.0248655263 5.974768,0.000334473716 C7.71143466,0.0255344737 9.113768,1.46126247 9.087768,3.18729447" id="Fill-6" fill="#FFFFFF" transform="translate(5.944062, 3.173762) scale(-1, 1) translate(-5.944062, -3.173762) "></path>
                    <path d="M1.891,7.269392 C1.27866667,7.258976 0.707,7.090976 0.209,6.804032 C0.138333333,6.825872 0.0696666667,6.853424 0,6.877616 C1.33333333,8.329472 2.15166667,10.267856 2.15166667,12.402128 C2.15166667,12.76568 2.12533333,13.122848 2.08,13.473968 L8.01866667,13.473968 C8.05266667,13.209536 8.07266667,12.9404 8.07266667,12.66656 C8.07266667,9.900608 6.25433333,7.563056 3.757,6.8 C3.21033333,7.108112 2.57533333,7.281152 1.891,7.269392 Z" id="Fill-8" fill="#ABECEC" transform="translate(4.036333, 10.136984) scale(-1, 1) translate(-4.036333, -10.136984) "></path>
                </g>
            </g>
        </g>
    </g>
</svg>