<?xml version="1.0" encoding="UTF-8"?>
<svg width="30px" height="30px" viewBox="0 0 30 30" version="1.1" xmlns="http://www.w3.org/2000/svg" xmlns:xlink="http://www.w3.org/1999/xlink">
    <!-- Generator: Sketch 45.1 (43504) - http://www.bohemiancoding.com/sketch -->
    <title>聊天pre@1x</title>
    <desc>Created with Sketch.</desc>
    <defs></defs>
    <g id="Welcome" stroke="none" stroke-width="1" fill="none" fill-rule="evenodd">
        <g id="Artboard-2" transform="translate(-30.000000, -31.000000)">
            <rect id="Rectangle-19" x="30" y="31" width="30" height="30"></rect>
            <g id="Group-9-Copy" transform="translate(31.000000, 31.000000)">
                <polygon id="Fill-1" fill="#BAEDED" points="10 10 10 23 21.3592529 23.0952148 24.9824829 27.2348022 25.4208984 23 27 23 27 10"></polygon>
                <path d="M9,22.9998 L21,22.9998 C21.1937561,22.9998 21.4256592,23.0259383 21.5812378,23.1888259 L25.0047302,27.2736953 L25.0047302,23.48 C25.0067302,23.205 25.2361196,22.9998 25.5111196,22.9998 L27,22.9998 L27,9 L9,9 L9,22.9998 Z M25.1341196,29.1163073 L21,23.9998 L8.5,23.98 C8.224,23.98 8,23.85 8,23.574 L8,8.5 C8,8.223 8.224,8 8.5,8 L27.4880981,8 C27.7640981,8 27.9880981,8.223 27.9880981,8.5 L27.9880981,23.48 C27.9880981,23.757 27.7640981,23.9998 27.4880981,23.9998 L26.0111196,23.9998 L26.0111196,28.7913073 C26.0101196,28.9993073 25.8801196,29.1843073 25.6851196,29.2573073 C25.6281196,29.2783073 25.5691196,29.2883073 25.5111196,29.2883073 C25.3691196,29.2883073 25.2301196,29.2273073 25.1341196,29.1163073 Z" id="Page-1" fill="#28C7C6"></path>
                <path d="M8,14.988 L1,15 L1,1 L19,1 L19,7.99 L19.988,7.99 L19.988,0.5 C19.988,0.223 19.764,0 19.488,0 L0.5,0 C0.224,0 0,0.223 0,0.5 L0,15.574 C0,15.85 0.224,15.98 0.5,15.98 L8,15.98 L8,14.988 Z" id="Fill-1" fill="#28C7C6"></path>
                <path d="M8,8.5 C8,8.223 8.225,8 8.5,8 L19,8 L19,2 L2,2 L2,15 L8,15 L8,8.5 Z" id="Page-1" fill="#BAEDED"></path>
            </g>
        </g>
    </g>
</svg>