<?xml version="1.0" encoding="UTF-8"?>
<svg width="12px" height="12px" viewBox="0 0 12 12" version="1.1" xmlns="http://www.w3.org/2000/svg" xmlns:xlink="http://www.w3.org/1999/xlink">
    <!-- Generator: Sketch 45.1 (43504) - http://www.bohemiancoding.com/sketch -->
    <title>搜索框 x@1x</title>
    <desc>Created with Sketch.</desc>
    <defs></defs>
    <g id="Welcome" stroke="none" stroke-width="1" fill="none" fill-rule="evenodd">
        <g id="Artboard-2" transform="translate(-288.000000, -190.000000)">
            <circle id="Oval-14-Copy" fill="#C5C7D3" cx="294" cy="196" r="6"></circle>
            <path d="M297.775533,195.589486 L294.250441,195.589486 L294.250441,192.064395 C294.250441,191.881971 294.102387,191.733917 293.919964,191.733917 C293.73754,191.733917 293.589486,191.881971 293.589486,192.064395 L293.589486,195.589486 L290.064395,195.589486 C289.881971,195.589486 289.733917,195.73754 289.733917,195.919964 C289.733917,196.102387 289.881971,196.250441 290.064395,196.250441 L293.589486,196.250441 L293.589486,199.775533 C293.589486,199.957956 293.73754,200.10601 293.919964,200.10601 C294.102387,200.10601 294.250441,199.957956 294.250441,199.775533 L294.250441,196.250441 L297.775533,196.250441 C297.957956,196.250441 298.10601,196.102387 298.10601,195.919964 C298.10601,195.73754 297.957956,195.589486 297.775533,195.589486" id="Page-1-Copy-6" fill="#FFFFFF" transform="translate(293.919964, 195.919964) rotate(-315.000000) translate(-293.919964, -195.919964) "></path>
        </g>
    </g>
</svg>