<?xml version="1.0" encoding="UTF-8"?>
<svg width="14px" height="14px" viewBox="0 0 14 14" version="1.1" xmlns="http://www.w3.org/2000/svg" xmlns:xlink="http://www.w3.org/1999/xlink">
    <!-- Generator: Sketch 45.1 (43504) - http://www.bohemiancoding.com/sketch -->
    <title>搜索 白色@1x</title>
    <desc>Created with Sketch.</desc>
    <defs></defs>
    <g id="Welcome" stroke="none" stroke-width="1" fill="none" fill-rule="evenodd">
        <g id="Artboard-2" transform="translate(-287.000000, -171.000000)" fill-rule="nonzero" fill="#FFFFFF">
            <path d="M297.080931,180.314373 L301,184.233442 L300.233442,185 L296.314373,181.080931 C295.33017,181.894184 294.067849,182.382807 292.691403,182.382807 C289.548128,182.382807 287,179.834679 287,176.691403 C287,173.548128 289.548128,171 292.691403,171 C295.834679,171 298.382807,173.548128 298.382807,176.691403 C298.382807,178.067849 297.894184,179.33017 297.080931,180.314373 Z M292.691403,181.29873 C295.23596,181.29873 297.29873,179.23596 297.29873,176.691403 C297.29873,174.146847 295.23596,172.084077 292.691403,172.084077 C290.146847,172.084077 288.084077,174.146847 288.084077,176.691403 C288.084077,179.23596 290.146847,181.29873 292.691403,181.29873 Z" id="Combined-Shape-Copy"></path>
        </g>
    </g>
</svg>