<?xml version="1.0" encoding="UTF-8"?>
<svg width="14px" height="14px" viewBox="0 0 14 14" version="1.1" xmlns="http://www.w3.org/2000/svg" xmlns:xlink="http://www.w3.org/1999/xlink">
    <!-- Generator: Sketch 45.1 (43504) - http://www.bohemiancoding.com/sketch -->
    <title>搜索@1x</title>
    <desc>Created with Sketch.</desc>
    <defs></defs>
    <g id="Welcome" stroke="none" stroke-width="1" fill="none" fill-rule="evenodd">
        <g id="Artboard-2" transform="translate(-267.000000, -171.000000)" fill-rule="nonzero" fill="#2DD0CF">
            <path d="M277.080931,180.314373 L281,184.233442 L280.233442,185 L276.314373,181.080931 C275.33017,181.894184 274.067849,182.382807 272.691403,182.382807 C269.548128,182.382807 267,179.834679 267,176.691403 C267,173.548128 269.548128,171 272.691403,171 C275.834679,171 278.382807,173.548128 278.382807,176.691403 C278.382807,178.067849 277.894184,179.33017 277.080931,180.314373 Z M272.691403,181.29873 C275.23596,181.29873 277.29873,179.23596 277.29873,176.691403 C277.29873,174.146847 275.23596,172.084077 272.691403,172.084077 C270.146847,172.084077 268.084077,174.146847 268.084077,176.691403 C268.084077,179.23596 270.146847,181.29873 272.691403,181.29873 Z" id="Combined-Shape"></path>
        </g>
    </g>
</svg>