<?xml version="1.0" encoding="UTF-8"?>
<svg width="22px" height="22px" viewBox="0 0 22 22" version="1.1" xmlns="http://www.w3.org/2000/svg" xmlns:xlink="http://www.w3.org/1999/xlink">
    <!-- Generator: Sketch 45.1 (43504) - http://www.bohemiancoding.com/sketch -->
    <title>已选框@1x</title>
    <desc>Created with Sketch.</desc>
    <defs></defs>
    <g id="Welcome" stroke="none" stroke-width="1" fill="none" fill-rule="evenodd">
        <g id="Artboard-2" transform="translate(-278.000000, -433.000000)">
            <circle id="Oval" stroke="#CDCFD9" fill="#3CCFCE" cx="289" cy="444" r="10"></circle>
            <path d="M294.214286,440 C293.997429,440 293.801,440.09269 293.658524,440.242207 L288.190476,446.002207 L285.341476,443.000828 C285.199,442.85131 285.002571,442.758621 284.785714,442.758621 C284.352,442.758621 284,443.129379 284,443.586207 C284,443.814621 284.088,444.021517 284.229952,444.171586 L287.634714,447.757793 C287.77719,447.90731 287.973619,448 288.190476,448 C288.407333,448 288.603762,447.90731 288.746238,447.757793 L294.770048,441.412966 C294.912,441.262897 295,441.056 295,440.827586 C295,440.370759 294.648,440 294.214286,440" id="Page-1-Copy-13" fill="#FFFFFF"></path>
        </g>
    </g>
</svg>