<?xml version="1.0" encoding="UTF-8"?>
<svg width="24px" height="24px" viewBox="0 0 24 24" version="1.1" xmlns="http://www.w3.org/2000/svg" xmlns:xlink="http://www.w3.org/1999/xlink">
    <!-- Generator: Sketch 45.1 (43504) - http://www.bohemiancoding.com/sketch -->
    <title>成功提示icon copy@1x</title>
    <desc>Created with Sketch.</desc>
    <defs>
        <circle id="path-1" cx="12" cy="12" r="12"></circle>
    </defs>
    <g id="Welcome" stroke="none" stroke-width="1" fill="none" fill-rule="evenodd">
        <g id="Artboard-2" transform="translate(-893.000000, -41.000000)">
            <g id="Group-4" transform="translate(893.000000, 41.000000)">
                <g id="Oval-13-Copy-13">
                    <use fill="#55BA82" fill-rule="evenodd" xlink:href="#path-1"></use>
                    <circle stroke="#FFFFFF" stroke-width="1" cx="12" cy="12" r="11.5"></circle>
                </g>
                <path d="M18.2571429,8 C17.9969143,8 17.7612,8.11122759 17.5902286,8.29064828 L11.0285714,15.2026483 L7.60977143,11.6009931 C7.4388,11.4215724 7.20308571,11.3103448 6.94285714,11.3103448 C6.4224,11.3103448 6,11.7552552 6,12.3034483 C6,12.5775448 6.1056,12.8258207 6.27594286,13.0059034 L10.3616571,17.3093517 C10.5326286,17.4887724 10.7683429,17.6 11.0285714,17.6 C11.2888,17.6 11.5245143,17.4887724 11.6954857,17.3093517 L18.9240571,9.69555862 C19.0944,9.51547586 19.2,9.2672 19.2,8.99310345 C19.2,8.44491034 18.7776,8 18.2571429,8" id="Page-1-Copy-13" fill="#FFFFFF"></path>
            </g>
        </g>
    </g>
</svg>