<?xml version="1.0" encoding="UTF-8"?>
<svg width="18px" height="18px" viewBox="0 0 18 18" version="1.1" xmlns="http://www.w3.org/2000/svg" xmlns:xlink="http://www.w3.org/1999/xlink">
    <!-- Generator: Sketch 45.1 (43504) - http://www.bohemiancoding.com/sketch -->
    <title>用户名 icon@1x</title>
    <desc>Created with Sketch.</desc>
    <defs></defs>
    <g id="Welcome" stroke="none" stroke-width="1" fill="none" fill-rule="evenodd">
        <g id="Artboard-2" transform="translate(-542.000000, -497.000000)" fill="#808080">
            <path d="M551.222289,506.278174 C548.934212,506.278174 547.0727,504.417152 547.0727,502.129074 C547.0727,499.840507 548.934212,497.979485 551.222289,497.979485 C553.510366,497.979485 555.371878,499.840507 555.371878,502.129074 C555.371878,504.417152 553.510366,506.278174 551.222289,506.278174 M553.638189,506.651358 C555.251401,505.785982 556.351363,504.084127 556.351363,502.129074 C556.351363,499.300321 554.050553,497 551.222289,497 C548.394025,497 546.093215,499.300321 546.093215,502.129074 C546.093215,504.936769 548.361213,507.222398 551.162051,507.25521 C551.194374,507.258639 551.225227,507.268923 551.25853,507.265985 C555.21565,507.267944 558.465093,510.516406 558.465093,514.510747 C558.465093,514.781085 558.684007,515 558.954835,515 C559.225663,515 559.444578,514.781085 559.444578,514.510747 C559.444578,510.817108 556.996354,507.685694 553.638189,506.651358 M546.971323,507.480982 C546.420363,507.817925 545.319911,508.593677 544.407031,509.923818 C543.643032,511.037003 542.999511,512.587528 543,514.510747 C543,514.781085 543.218915,515 543.489743,515 C543.760571,515 543.978016,514.781085 543.979486,514.510747 C543.994668,512.034119 545.295424,509.485988 547.722588,508.158296 C547.959624,508.028514 547.912608,507.656799 547.721609,507.4658 C547.530119,507.27529 547.202482,507.339936 546.971323,507.480982" id="Fill-1-Copy-5"></path>
        </g>
    </g>
</svg>