<?xml version="1.0" encoding="UTF-8"?>
<svg width="20px" height="20px" viewBox="0 0 20 20" version="1.1" xmlns="http://www.w3.org/2000/svg" xmlns:xlink="http://www.w3.org/1999/xlink">
    <!-- Generator: Sketch 45.1 (43504) - http://www.bohemiancoding.com/sketch -->
    <title>验证消息@1x</title>
    <desc>Created with Sketch.</desc>
    <defs></defs>
    <g id="Welcome" stroke="none" stroke-width="1" fill="none" fill-rule="evenodd">
        <g id="Artboard-2" transform="translate(-29.000000, -370.000000)">
            <g id="Group-3" transform="translate(29.000000, 371.000000)">
                <path d="M4.24352174,13.890471 C3.90265217,13.890471 3.61808696,13.793587 3.43801449,13.4897464 C3.2554058,13.1828623 3.36547826,12.9114855 3.54757971,12.6436594 C4.13446377,11.7772826 4.73352174,10.9185145 5.28692754,10.0318478 C5.44417391,9.77822464 5.52076812,9.4398913 5.53142029,9.13706522 C5.56692754,8.11648551 5.54207246,7.09286232 5.56642029,6.07076087 C5.60649275,4.32887681 6.40134783,3.03134058 7.92663768,2.19286232 C8.15084058,2.06960145 8.25584058,1.94583333 8.28627536,1.67445652 C8.38163768,0.828369565 9.11410145,0.204963768 9.93685507,0.217137681 C10.7895362,0.230326087 11.4946087,0.862355072 11.5798261,1.7267029 C11.6031594,1.95699275 11.6975072,2.06199275 11.8856957,2.16445652 C13.4556232,3.01561594 14.2702609,4.33699275 14.2951159,6.12655797 C14.3088116,7.09894928 14.3118551,8.07286232 14.2859855,9.04576087 C14.2712754,9.59815217 14.5325072,10.0288043 14.8135217,10.4533696 C15.2964203,11.1848188 15.8011304,11.9010507 16.2987391,12.6223551 C16.4783043,12.883587 16.6096812,13.1503986 16.4351884,13.4669203 C16.2546087,13.7951087 15.9578696,13.8894565 15.6058406,13.8889493 C13.7062029,13.8869203 11.8065652,13.8874275 9.90642029,13.8889493 C8.01895652,13.8889493 6.13149275,13.8869203 4.24352174,13.890471 Z" id="Fill-1" stroke="#808080" stroke-width="0.8"></path>
                <path d="M8,14 L12.2821739,14 C12.3471014,14.8983333 11.4335507,15.8438406 10.419058,15.9412319 C9.16463768,16.0619565 8.15369565,15.2696377 8,14" id="Fill-4" stroke="#808080" stroke-width="0.8"></path>
                <path d="M19.1703623,12.3209493 C19.149058,11.4839928 18.7483333,10.3863116 17.8327536,9.50015217 C17.6724638,9.34544203 17.6181884,9.1602971 17.786087,8.98580435 C17.9747826,8.78899275 18.1827536,8.82652899 18.3592754,9.01421014 C19.0060145,9.70000725 19.4574638,10.5039928 19.6791304,11.4145 C20.125,13.2416014 19.7252899,14.8805145 18.5023188,16.3129783 C18.4318116,16.3961667 18.3587681,16.5163841 18.2694928,16.5351522 C18.1208696,16.5666014 17.9245652,16.5797899 17.8139855,16.5047174 C17.7465217,16.4590652 17.7871014,16.2302971 17.8078986,16.0887754 C17.817029,16.0289203 17.8997101,15.9802246 17.9484058,15.925442 C18.7802899,15.0007319 19.1718841,13.9796449 19.1703623,12.3209493" id="Fill-6" fill="#808080"></path>
                <path d="M0,12.6463986 C0.0451449275,11.3143696 0.512826087,10.0553841 1.54507246,9.01907971 C1.72362319,8.83951449 1.87326087,8.81161594 2.04318841,8.95516667 C2.2192029,9.10378986 2.2126087,9.29197826 2.06347826,9.47052899 C1.84586957,9.73023913 1.59528986,9.96915217 1.41673913,10.2532101 C0.265289855,12.0863986 0.465144928,14.3091522 1.90826087,15.9216884 C1.95695652,15.9759638 2.03963768,16.0241522 2.04927536,16.0845145 C2.07108696,16.2265435 2.11471014,16.4497319 2.04724638,16.4999493 C1.94021739,16.5780652 1.74442029,16.5648768 1.59427536,16.5415435 C1.51666667,16.5303841 1.45173913,16.4182826 1.38681159,16.3452391 C0.474275362,15.3221232 0.0223188406,14.1219783 0,12.6463986" id="Fill-8" fill="#808080"></path>
                <path d="M17.9785362,12.8207391 C17.9907101,13.6338551 17.7031014,14.4124783 17.1390435,15.0926957 C17.0847681,15.1581304 17.026942,15.221029 16.9640435,15.2788551 C16.8179565,15.4127681 16.6175942,15.5101594 16.4948406,15.3250145 C16.4152029,15.2058116 16.4086087,14.9166812 16.4963623,14.8263913 C17.6513623,13.6348696 17.5341884,11.7423333 16.4988986,10.6943623 C16.4126667,10.6061014 16.4157101,10.3073333 16.4988986,10.2023333 C16.6409275,10.0222609 16.8433188,10.1140725 16.9954928,10.2748696 C17.6533913,10.9682754 17.9795507,11.7920435 17.9785362,12.8207391" id="Fill-10" fill="#808080"></path>
                <path d="M1.87838406,12.7737174 C1.87026812,11.8429203 2.18577536,11.0353841 2.79802174,10.3389348 C2.9649058,10.1497319 3.15715217,9.99907971 3.38541304,10.207558 C3.59794928,10.4013261 3.47113768,10.592558 3.31338406,10.7756739 C2.27657246,11.9732826 2.27302174,13.5193696 3.29867391,14.7291522 C3.30678986,14.7387899 3.31439855,14.7484275 3.32251449,14.757558 C3.48483333,14.9356014 3.58932609,15.1359638 3.37628261,15.3292246 C3.15157246,15.5331377 2.97099275,15.3627029 2.81831159,15.1978478 C2.31563043,14.6566159 2.0188913,14.0119058 1.90932609,13.2840072 C1.88396377,13.1161087 1.88802174,12.9436449 1.87838406,12.7737174" id="Fill-12" fill="#808080"></path>
            </g>
        </g>
    </g>
</svg>