<?xml version="1.0" encoding="UTF-8"?>
<svg width="20px" height="20px" viewBox="0 0 20 20" version="1.1" xmlns="http://www.w3.org/2000/svg" xmlns:xlink="http://www.w3.org/1999/xlink">
    <!-- Generator: Sketch 45.1 (43504) - http://www.bohemiancoding.com/sketch -->
    <title>验证消息 pre@1x</title>
    <desc>Created with Sketch.</desc>
    <defs></defs>
    <g id="Welcome" stroke="none" stroke-width="1" fill="none" fill-rule="evenodd">
        <g id="Artboard-2" transform="translate(-60.000000, -370.000000)">
            <path d="M64.2435217,384.890471 C63.9026522,384.890471 63.618087,384.793587 63.4380145,384.489746 C63.2554058,384.182862 63.3654783,383.911486 63.5475797,383.643659 C64.1344638,382.777283 64.7335217,381.918514 65.2869275,381.031848 C65.4441739,380.778225 65.5207681,380.439891 65.5314203,380.137065 C65.5669275,379.116486 65.5420725,378.092862 65.5664203,377.070761 C65.6064928,375.328877 66.4013478,374.031341 67.9266377,373.192862 C68.1508406,373.069601 68.2558406,372.945833 68.2862754,372.674457 C68.3816377,371.82837 69.1141014,371.204964 69.9368551,371.217138 C70.7895362,371.230326 71.4946087,371.862355 71.5798261,372.726703 C71.6031594,372.956993 71.6975072,373.061993 71.8856957,373.164457 C73.4556232,374.015616 74.2702609,375.336993 74.2951159,377.126558 C74.3088116,378.098949 74.3118551,379.072862 74.2859855,380.045761 C74.2712754,380.598152 74.5325072,381.028804 74.8135217,381.45337 C75.2964203,382.184819 75.8011304,382.901051 76.2987391,383.622355 C76.4783043,383.883587 76.6096812,384.150399 76.4351884,384.46692 C76.2546087,384.795109 75.9578696,384.889457 75.6058406,384.888949 C73.7062029,384.88692 71.8065652,384.887428 69.9064203,384.888949 C68.0189565,384.888949 66.1314928,384.88692 64.2435217,384.890471 Z" id="Fill-1" stroke="#28C7C6" stroke-width="0.8"></path>
            <path d="M68,385 L72.2821739,385 C72.3471014,385.898333 71.4335507,386.843841 70.419058,386.941232 C69.1646377,387.061957 68.1536957,386.269638 68,385" id="Fill-4" stroke="#28C7C6" stroke-width="0.8"></path>
            <path d="M79.1703623,383.320949 C79.149058,382.483993 78.7483333,381.386312 77.8327536,380.500152 C77.6724638,380.345442 77.6181884,380.160297 77.786087,379.985804 C77.9747826,379.788993 78.1827536,379.826529 78.3592754,380.01421 C79.0060145,380.700007 79.4574638,381.503993 79.6791304,382.4145 C80.125,384.241601 79.7252899,385.880514 78.5023188,387.312978 C78.4318116,387.396167 78.3587681,387.516384 78.2694928,387.535152 C78.1208696,387.566601 77.9245652,387.57979 77.8139855,387.504717 C77.7465217,387.459065 77.7871014,387.230297 77.8078986,387.088775 C77.817029,387.02892 77.8997101,386.980225 77.9484058,386.925442 C78.7802899,386.000732 79.1718841,384.979645 79.1703623,383.320949" id="Fill-6" fill="#28C7C6"></path>
            <path d="M60,383.646399 C60.0451449,382.31437 60.5128261,381.055384 61.5450725,380.01908 C61.7236232,379.839514 61.8732609,379.811616 62.0431884,379.955167 C62.2192029,380.10379 62.2126087,380.291978 62.0634783,380.470529 C61.8458696,380.730239 61.5952899,380.969152 61.4167391,381.25321 C60.2652899,383.086399 60.4651449,385.309152 61.9082609,386.921688 C61.9569565,386.975964 62.0396377,387.024152 62.0492754,387.084514 C62.071087,387.226543 62.1147101,387.449732 62.0472464,387.499949 C61.9402174,387.578065 61.7444203,387.564877 61.5942754,387.541543 C61.5166667,387.530384 61.4517391,387.418283 61.3868116,387.345239 C60.4742754,386.322123 60.0223188,385.121978 60,383.646399" id="Fill-8" fill="#28C7C6"></path>
            <path d="M77.9785362,383.820739 C77.9907101,384.633855 77.7031014,385.412478 77.1390435,386.092696 C77.0847681,386.15813 77.026942,386.221029 76.9640435,386.278855 C76.8179565,386.412768 76.6175942,386.510159 76.4948406,386.325014 C76.4152029,386.205812 76.4086087,385.916681 76.4963623,385.826391 C77.6513623,384.63487 77.5341884,382.742333 76.4988986,381.694362 C76.4126667,381.606101 76.4157101,381.307333 76.4988986,381.202333 C76.6409275,381.022261 76.8433188,381.114072 76.9954928,381.27487 C77.6533913,381.968275 77.9795507,382.792043 77.9785362,383.820739" id="Fill-10" fill="#28C7C6"></path>
            <path d="M61.8783841,383.773717 C61.8702681,382.84292 62.1857754,382.035384 62.7980217,381.338935 C62.9649058,381.149732 63.1571522,380.99908 63.385413,381.207558 C63.5979493,381.401326 63.4711377,381.592558 63.3133841,381.775674 C62.2765725,382.973283 62.2730217,384.51937 63.2986739,385.729152 C63.3067899,385.73879 63.3143986,385.748428 63.3225145,385.757558 C63.4848333,385.935601 63.5893261,386.135964 63.3762826,386.329225 C63.1515725,386.533138 62.9709928,386.362703 62.8183116,386.197848 C62.3156304,385.656616 62.0188913,385.011906 61.9093261,384.284007 C61.8839638,384.116109 61.8880217,383.943645 61.8783841,383.773717" id="Fill-12" fill="#28C7C6"></path>
        </g>
    </g>
</svg>