<?xml version="1.0" encoding="UTF-8"?>
<svg width="32px" height="32px" viewBox="0 0 32 32" version="1.1" xmlns="http://www.w3.org/2000/svg" xmlns:xlink="http://www.w3.org/1999/xlink">
    <!-- Generator: Sketch 45.1 (43504) - http://www.bohemiancoding.com/sketch -->
    <title>右 copy@1x</title>
    <desc>Created with Sketch.</desc>
    <defs></defs>
    <g id="Welcome" stroke="none" stroke-width="1" fill="none" fill-rule="evenodd">
        <g id="Artboard-2" transform="translate(-538.000000, -575.000000)">
            <circle id="Oval-8" fill="#000000" opacity="0.6" cx="554" cy="591" r="16"></circle>
            <g id="Group-15" transform="translate(546.000000, 583.000000)" fill="#FFFFFF">
                <path d="M-2.10686458,7.19925787 C-2.37723193,7.19925787 -2.5966605,7.41868644 -2.5966605,7.68905378 C-2.5966605,7.95942113 -2.37723193,8.1788497 -2.10686458,8.1788497 L17.4849722,8.1788497 C17.7553395,8.1788497 17.9747681,7.95942113 17.9747681,7.68905378 C17.9747681,7.41868644 17.7553395,7.19925787 17.4849722,7.19925787 L-2.10686458,7.19925787 Z" id="Page-1-Copy-6" transform="translate(7.689054, 7.689054) rotate(45.000000) translate(-7.689054, -7.689054) "></path>
                <path d="M-2.10686458,7.19925787 C-2.37723193,7.19925787 -2.5966605,7.41868644 -2.5966605,7.68905378 C-2.5966605,7.95942113 -2.37723193,8.1788497 -2.10686458,8.1788497 L17.4849722,8.1788497 C17.7553395,8.1788497 17.9747681,7.95942113 17.9747681,7.68905378 C17.9747681,7.41868644 17.7553395,7.19925787 17.4849722,7.19925787 L-2.10686458,7.19925787 Z" id="Page-1-Copy-7" transform="translate(7.689054, 7.689054) rotate(135.000000) translate(-7.689054, -7.689054) "></path>
            </g>
        </g>
    </g>
</svg>