<?xml version="1.0" encoding="UTF-8"?>
<svg width="60px" height="60px" viewBox="0 0 60 60" version="1.1" xmlns="http://www.w3.org/2000/svg" xmlns:xlink="http://www.w3.org/1999/xlink">
    <!-- Generator: Sketch 45.1 (43504) - http://www.bohemiancoding.com/sketch -->
    <title>欢迎页icon@1x</title>
    <desc>Created with Sketch.</desc>
    <defs></defs>
    <g id="Welcome" stroke="none" stroke-width="1" fill="none" fill-rule="evenodd" opacity="0.15">
        <g id="Artboard-2" transform="translate(-396.000000, -700.000000)" fill="#808080">
            <path d="M425.780787,755.205669 C422.545512,755.205669 419.460472,754.599528 416.350866,753.350866 C415.947874,753.048504 415.47685,752.888819 414.988819,752.888819 C414.651969,752.888819 414.315591,752.969134 414.044882,753.109449 C413.85685,753.176535 413.67874,753.266772 413.547874,753.362205 C411.694016,754.270709 409.715906,754.711969 407.502047,754.711969 C406.398898,754.711969 405.316063,754.595748 404.275276,754.365197 L407.739213,750.889921 C408.193228,750.434961 408.444567,749.848189 408.444567,749.232598 C408.444567,748.739843 408.282047,748.26315 407.985827,747.868189 C407.834173,747.628189 407.639528,747.414173 407.433543,747.254488 C403.027559,742.570709 400.601102,736.453071 400.601102,730.026929 C400.601102,728.956378 400.722992,727.975591 400.843465,727.007559 L400.848661,726.940472 C400.848661,726.473701 400.926614,725.86 401.086299,725.061575 C403.379528,713.349291 413.764724,704.850079 425.780787,704.850079 C432.514016,704.850079 438.839055,707.465984 443.591339,712.218268 C448.34315,716.969134 450.960472,723.293701 450.960472,730.026929 C450.960472,736.760157 448.34315,743.085669 443.591339,747.836535 C438.838583,752.589764 432.513543,755.205669 425.780787,755.205669 M447.153071,708.778898 C441.491811,703.11811 433.989449,700 426.027402,700 C411.748819,700 399.384094,710.093228 396.622677,724.028346 C396.505512,724.850394 396.385984,725.569921 396.270236,726.267717 L396.250866,726.388661 C396.129449,727.471969 396,728.73622 396,730.026929 C396,733.942992 396.734646,737.737165 398.18315,741.302677 C399.327402,744.119843 400.905354,746.757008 402.875433,749.146142 C401.506772,750.645669 399.877323,751.826772 398.011654,752.665354 C396.80126,753.270551 396.303307,754.519213 396.773386,755.771181 L396.794646,755.82126 C397.118268,756.467087 397.62,756.909764 398.201102,757.085984 C401.052283,758.623307 404.225669,759.437323 407.379213,759.437323 C410.044724,759.437323 412.503307,758.941732 414.891024,757.924094 C418.323307,759.273858 421.886457,759.931969 425.780787,759.931969 C433.735276,759.931969 441.248031,756.808661 446.935748,751.138425 C452.614961,745.474331 455.810079,737.934646 455.931969,729.904094 C455.931969,721.942992 452.814331,714.441102 447.153071,708.778898" id="Fill-3-Copy-6"></path>
            <path d="M432.769046,713 C431.2492,713 429.999815,714.236462 429.999815,715.755385 L429.999815,733.430462 L429.999815,734.571846 C429.876123,738.092462 427.197538,740.230769 423.690769,740.230769 C420.275846,740.230769 417.512154,737.861231 417.512154,734.571846 L417.511231,734.102 C417.504769,732.588615 416.281969,731.461538 414.769046,731.461538 C413.257046,731.461538 412.007846,732.588615 412,734.104308 L412,734.547846 C412,740.994615 417.244462,746.24 423.690769,746.24 C426.813538,746.24 429.753077,745.029385 431.967538,742.832923 C434.188462,740.629077 435.538738,737.815077 435.538277,734.692308 L435.538277,715.755385 C435.538277,714.235538 434.174615,713 432.654769,713 L432.769046,713 Z" id="Fill-1-Copy-3"></path>
        </g>
    </g>
</svg>