<?xml version="1.0" encoding="UTF-8"?>
<svg width="26px" height="27px" viewBox="0 0 26 27" version="1.1" xmlns="http://www.w3.org/2000/svg" xmlns:xlink="http://www.w3.org/1999/xlink">
    <!-- Generator: Sketch 45.1 (43504) - http://www.bohemiancoding.com/sketch -->
    <title>放大 hover@1x</title>
    <desc>Created with Sketch.</desc>
    <defs></defs>
    <g id="Welcome" stroke="none" stroke-width="1" fill="none" fill-rule="evenodd">
        <g id="Artboard-2" transform="translate(-328.000000, -622.000000)" fill="#2DD0CF">
            <g id="Group-17-Copy" transform="translate(341.500000, 635.412808) scale(-1, 1) translate(-341.500000, -635.412808) translate(329.000000, 622.412808)">
                <path d="M15,18.4615385 C19.6731787,18.4615385 23.4615385,14.6731787 23.4615385,10 C23.4615385,5.32682135 19.6731787,1.53846154 15,1.53846154 C10.3268213,1.53846154 6.53846154,5.32682135 6.53846154,10 C6.53846154,14.6731787 10.3268213,18.4615385 15,18.4615385 Z M15,20 C9.4771525,20 5,15.5228475 5,10 C5,4.4771525 9.4771525,0 15,0 C20.5228475,0 25,4.4771525 25,10 C25,15.5228475 20.5228475,20 15,20 Z" id="Oval-7-Copy-2" fill-rule="nonzero" transform="translate(15.000000, 10.000000) scale(-1, 1) translate(-15.000000, -10.000000) "></path>
                <rect id="Rectangle-12-Copy" transform="translate(15.000000, 9.750000) scale(-1, 1) translate(-15.000000, -9.750000) " x="10" y="9" width="10" height="1.5" rx="0.75"></rect>
                <rect id="Rectangle-12-Copy-2" transform="translate(15.000000, 9.750000) scale(-1, 1) rotate(90.000000) translate(-15.000000, -9.750000) " x="10" y="9" width="10" height="1.5" rx="0.75"></rect>
                <rect id="Rectangle-11-Copy-3" transform="translate(5.403806, 20.596194) scale(-1, 1) rotate(45.000000) translate(-5.403806, -20.596194) " x="-0.331488195" y="19.8314882" width="11.4705882" height="1.52941176" rx="0.764705882"></rect>
            </g>
        </g>
    </g>
</svg>